<svg xmlns="http://www.w3.org/2000/svg" viewBox="0 0 482.07 147.11"><defs><style>.cls-1{fill:#1d1d1b;}</style></defs><g id="Laag_2" data-name="Laag 2"><g id="Laag_1-2" data-name="Laag 1"><path class="cls-1" d="M.52,63.6c-.66,0-.42.38-.52.46C1.1,64,.49,63.49.52,63.6Z"/><polygon class="cls-1" points="11.38 62.65 11.18 62.82 12.78 62.4 11.38 62.65"/><path class="cls-1" d="M21.53,62.66c-1-.72-3.68.11-5.49-.14l-.3-.16-.81.57A54.92,54.92,0,0,1,21.53,62.66Z"/><path class="cls-1" d="M26.94,64.2c-.34-.28,1.17-.24-1.26-.08l.22.07C26.12,64.18,26.43,64.18,26.94,64.2Z"/><path class="cls-1" d="M25.9,64.19c-1.06,0,.7.23,0,0Z"/><path class="cls-1" d="M30.84,64l-1.41.24c.3.17,1.55.21,1.08.33C32,64.46,31.66,64.3,30.84,64Z"/><path class="cls-1" d="M32.18,63.51l-.73.1C31.57,63.68,31.77,63.7,32.18,63.51Z"/><path class="cls-1" d="M29.9,63.83l1.55-.22c-.21-.11-.23-.35-.71.08C30.86,63.48,30.56,63.68,29.9,63.83Z"/><path class="cls-1" d="M29,63.72c-.79-.15-1.81-.25-.39-.5C25.93,63.32,26.33,63.82,29,63.72Z"/><path class="cls-1" d="M22,61.92,21,61.71l-.92.24C20.53,61.83,22.11,62.14,22,61.92Z"/><path class="cls-1" d="M39.61,64.4c.09-.16-.47-.41-.58-.6L38,64C38.53,64.08,39.54,64.17,39.61,64.4Z"/><path class="cls-1" d="M39,63.8l1.56-.26C39.2,63.51,39,63.63,39,63.8Z"/><polygon class="cls-1" points="32.43 62.71 29.87 63.26 32.92 62.71 32.43 62.71"/><polygon class="cls-1" points="45.56 64.42 44.67 64.77 46.24 64.24 45.56 64.42"/><path class="cls-1" d="M49.5,64.35c-.65.3.89.5.2.68a13.39,13.39,0,0,0,2.81-.53A8.82,8.82,0,0,1,49.5,64.35Z"/><path class="cls-1" d="M53.89,64.17c-.43.07-.89.2-1.38.33A6.76,6.76,0,0,0,53.89,64.17Z"/><path class="cls-1" d="M43.24,63.61a2,2,0,0,0,1.23.44l-.62-.43Z"/><path class="cls-1" d="M43.83,63.6l0,0,1.33,0Z"/><path class="cls-1" d="M43.09,63.61h.15C43.18,63.57,43.15,63.56,43.09,63.61Z"/><path class="cls-1" d="M36.51,63.1c.91-.24,2.82-.49,1-.86C36.83,62.53,37.88,62.74,36.51,63.1Z"/><path class="cls-1" d="M42.33,63.08,40.67,63c0,.11.33.28-.12.39Z"/><polygon class="cls-1" points="43.14 62.94 42.33 63.08 42.94 63.11 43.14 62.94"/><path class="cls-1" d="M51.06,63.77a11.58,11.58,0,0,1,2.38-.23c-.95-.08-1.92-.13-2.85-.13C50.46,63.55,50.05,63.79,51.06,63.77Z"/><path class="cls-1" d="M47.55,63.65l.16,0C47.61,63.59,47.53,63.58,47.55,63.65Z"/><path class="cls-1" d="M62.13,63.54,62,63.47l0,.07Z"/><path class="cls-1" d="M50.43,63.33a3.17,3.17,0,0,0-1.54.16c.53-.05,1.09-.07,1.7-.08C50.65,63.35,50.66,63.31,50.43,63.33Z"/><path class="cls-1" d="M56.32,64c-.37-.09-.79-.16-1.23-.23C55.45,63.87,56.19,64.08,56.32,64Z"/><path class="cls-1" d="M48,63.75l-.11,0C48.07,63.86,48,63.81,48,63.75Z"/><path class="cls-1" d="M48,63.75a6.66,6.66,0,0,0,.94-.26c-.43,0-.83.08-1.18.14A.9.9,0,0,1,48,63.75Z"/><path class="cls-1" d="M64.76,60.8c-.13.4-2,.76-3.61.34-1.59.29-.55,1.6.84,2.33,0-.18,0-.34,1.68-.57-.57-.22-3.63-.51-2.25-.87,2.17-.2,1.78.14,2.83.35-.9-.49,2.75-.71,2.28-1.44l-1.9.26C64.6,61.08,65.28,60.9,64.76,60.8Z"/><path class="cls-1" d="M58.87,63.42l-.67,0a10.56,10.56,0,0,1,2.33.54c1.11-.19,1.35-.34,1.42-.47l-3.31-.06Z"/><path class="cls-1" d="M55.18,63.48c.53-.44,2.14-.62,1.15-1.08-2,0-1.38.35-2.56.54,3.19-.1-.91.24,1.39.49-.63.07-1.19.09-1.72.11.57.05,1.13.12,1.65.2l-.08,0h0c-.14-.05-.18-.08,0-.05H55a.42.42,0,0,1,.14-.16c.93.09.15.11-.14.16,0,0,0,0,0,.06h0l3.19-.24A27.16,27.16,0,0,0,55.18,63.48Z"/><path class="cls-1" d="M39.18,61.31c.1,0,.1.07.11.1C39.49,61.36,39.57,61.33,39.18,61.31Z"/><path class="cls-1" d="M40.49,61.57a2.24,2.24,0,0,1-1.17.19c-.66-.13,0-.2,0-.35-.46.12-1.59.31-.17.52l.23-.06a7,7,0,0,1,2.7.75A4.13,4.13,0,0,0,40.49,61.57Z"/><path class="cls-1" d="M47.93,62.42l2.66-.22-1.36-.37.07.22C47.79,62,48.12,62.24,47.93,62.42Z"/><polygon class="cls-1" points="62.43 63.76 62.08 64.21 63.61 63.57 62.43 63.76"/><polygon class="cls-1" points="65.88 63.7 65.75 64.1 66.66 63.86 65.88 63.7"/><path class="cls-1" d="M260.59,58.79l.78-.11A5.28,5.28,0,0,0,260.59,58.79Z"/><path class="cls-1" d="M254.94,58.77l-.14.19C255.06,58.85,255.17,58.77,254.94,58.77Z"/><path class="cls-1" d="M150.62,63.66c1.14.37,2.41.94,2.27.5l-.35-.44A6.86,6.86,0,0,1,150.62,63.66Z"/><path class="cls-1" d="M208.66,61.07l-.34-.13-.76.41Z"/><path class="cls-1" d="M209.46,59.27l1.5.28A10.47,10.47,0,0,0,209.46,59.27Z"/><path class="cls-1" d="M291.44,58.33l.91-.44C290.92,57.89,291.55,58.12,291.44,58.33Z"/><path class="cls-1" d="M101.22,63.54a16.94,16.94,0,0,0,2.45.26C102.48,63.56,101.53,63.18,101.22,63.54Z"/><path class="cls-1" d="M258.37,63.4c.47-.08.68-.17.66-.27C258.54,63.21,258.26,63.29,258.37,63.4Z"/><path class="cls-1" d="M106.5,63.8l-.52-.1a16.73,16.73,0,0,1-2.31.1A5.54,5.54,0,0,0,106.5,63.8Z"/><path class="cls-1" d="M403.31,58.69l.26.05C403.59,58.69,403.48,58.68,403.31,58.69Z"/><path class="cls-1" d="M435.91,63.07c-.32,0-.85,0-1.34,0A7,7,0,0,0,435.91,63.07Z"/><path class="cls-1" d="M79.76,63.89c-.73,0-.11,0,0,0Z"/><path class="cls-1" d="M76.2,62.18c.16,0,.28-.11.3-.21A.52.52,0,0,1,76.2,62.18Z"/><path class="cls-1" d="M113.79,61.1h.06C113.63,61,113.67,61,113.79,61.1Z"/><path class="cls-1" d="M78.66,63.69a7.62,7.62,0,0,0,.94.13Z"/><path class="cls-1" d="M78.81,63.9l-.64,0C78.08,63.93,78.16,64,78.81,63.9Z"/><path class="cls-1" d="M80.78,63.87a8.93,8.93,0,0,1-1.18,0c.14,0,.2.06.16.07Z"/><path class="cls-1" d="M343.37,59.85l.16,0C344.27,59.71,343.94,59.74,343.37,59.85Z"/><path class="cls-1" d="M169.67,59.15l-.09,0,.11,0Z"/><path class="cls-1" d="M172.3,58.83a3.89,3.89,0,0,1-2.61.36l.87,1.25Z"/><path class="cls-1" d="M274.11,58.67l-1.84-.39c2.23-.64,3.84-.42,2.1-1-.26,1.36-7.17.14-7.43,1.5l-1.21-.29c.34,0,.4-.07.75-.05-2.37-.65-1.76,1-4.81.78-1.06-.1-1.81-.3-1.08-.46l-2.37.34c-.69,0-.52-.26.17-.24l-3.61.11,0,0a21.84,21.84,0,0,1-2.25.68c-.92-.19.46-.14.22-.31l-2,.33c-.82-.35.84-.69,2.22-.64-1.87-1.36-1.66.34-5.69-.45l1.89-.18c-1.22-.77-2.69-.49-4.83-1,.51.25,4.28,1.21,2.11,1.55a6.4,6.4,0,0,0-2.59.12c0-.48-1.16-.36-2.59-.33l.1-.64c-1.55.18-1.42.51-2.33.79-1.73-.06-2.08-.55-2.49-1-2.76-.1,1.91.79-1.36.91a25,25,0,0,0-6.65.4c-1.61-.22.28-.39-.3-.57l-1.42.51c-.35,0-.24-.17-.18-.25-1.2.2-.1.64-2,.81-.51.71-3.87-1-6.21-.23-.57-.18.28-.39.1-.64A35.61,35.61,0,0,0,213.2,60L211,59.55c1.64.48-.46,1.05-2.3,1.52.58.23,1.08.43,1.41.53l-2.94.34c-.35-.1,0-.32.43-.59l-.54.15c-1.05-.23-.51-.6.24-1,.36.13.72.26,1.06.4.73-.39,1.41-.82,1.26-1.2a4,4,0,0,1-1,.18c.19-.11.32-.2.23-.27s-.41.08-.89.24l-.67-.71-.16.28L203.27,59c-2.75.72-5.14,1.78-9.51,2.07,1.08-.52.23-.85.29-1.47,1.19.65,3.38-.28,5.65-.15-1.19-.07-.93-.36-.62-.46l-4,.59c.09-.5-.86-.38-1.92-.59.8,1-3,.67-4.65,1-.1-.34.29-.68,2.3-.6-2.21-.76-2.86,1.17-5,.53.49,0,.75.05.95-.12-1.15.3-3.94.06-3.29-.23h.49c-3.25-.12-9.89,0-10.38.84a3.58,3.58,0,0,1,.63-1.2l-5.8,2.87c.51-.73-1.45-2.47,1.24-2.89a10.43,10.43,0,0,0-3.36,0c.53.1,1.32,1,.6,1.12A21.46,21.46,0,0,0,163,59.2c.79.16-.09,1.3-1.34,1.27.2-.18-.1-1.13.35-1.25l-3.11,1.12c.78-.2.14-1-.56-1.27.33.22-2.69,0-3.52.09l1.32.26c-3.51-.17-3.47,1.58-6.95,1.52.42-.23,1-1.43-.74-1.57-.81.58-3.59,2.77-6.68,3.22l-.59-.33-2.36.37a54.07,54.07,0,0,1,7.86-3.4c-1.31-.26-.36-.39-2.33-.36-.7-.3,1.07-.46,1.65-.48l-4.59-.2c.21.67-3.5.67-3.33,1.23l5-.69c.2.67-2.88,1.9-6.12,1.79-.83-.27.61-1.2.55-1.43a9.76,9.76,0,0,1-3.39.28l1.38-.36c-1.81-.25-2.95.89-5.12.25-.75,0-2.24-.86-2.37-.47,1.22.77,1.46,3.15.64,3.72a42.92,42.92,0,0,1-4.79-1.11c-1.24-.6,1.85-1.43.8-1.95,0,.18-.73.41-1,.48-.79-.16.33-.57-1.39-.48-.28.68-3.48-.06-.8.57-1.68.2-1.78-.14-3.75-.11.63.44-1.77,1.5-3.44,1.7.1-.18-.28-.4-.46-.51-3.44-.06-5.28-.37-8.48-.37-.29-.17-1.84-.37-1.18-.66a5.83,5.83,0,0,1-1.87.37c-1.91-.59,2.2-.1.74-.8-.12.39-2.55.54-4,.79.43.61,3.24.12,4.65-.13,0,.84-2.44,1.73-5.79,2.12-2.66.21-1.15-.55-1.61-.43-5-.14-4.26,1.48-8.4.87-1.65-.54-.08-1.07-.44-1.46,2.16-.2,3.32.34,4.79.32l-1.81-.25a8.38,8.38,0,0,1,2.93-.16c-1.38-.49-8.44-.1-12.29-.54-.69.18-1.87.36-1.31.58L81,61.28c1.12.43-2.3.6-.75.8a18.68,18.68,0,0,1-5.77.54L74,62a3.68,3.68,0,0,0,2.16.18c-1,.27-3.53-.83-4.59,0l1.62.43a20.22,20.22,0,0,1-5.71.77c.92.6.47-.07,1.92.63-1.26-.88,5.22,0,3.2-.88,1.48.82,2.57.34,4.52,1.05-.06-.21-.69-.39,1-.29a1.68,1.68,0,0,1,.38-.18h.11l-.09,0c.07,0,.08,0,0,0a2.47,2.47,0,0,1-.87-.3c.85-.47,3.57-.45,4.49-.69,1,.09-.42.23.13.44l1.38-.36c.14.45,2.7.75.31,1l2.15,0a13.3,13.3,0,0,0,4.09.17c1,.09,2.57-.5,1.68-.15l3.38-.28,0,.11c3.34.06,6.87-.74,10.68.07a21.7,21.7,0,0,1,4.16-.12l.37.39c1.44-.14,4.32.38,4.94,0,1.56,1,7,.23,9.53.41l.1-.5a53.1,53.1,0,0,0,5.58-.32l-.13-.45c1.87-.37,4.8.32,7.75.27a2.55,2.55,0,0,1-1.48,0c3.53,1,7.45-.73,10.65,0a4.45,4.45,0,0,1,1.93,0l-.19,0h.32c.36.08.72.17,1.11.24a5.56,5.56,0,0,0-.93-.24c.61,0,1.55-.07,2.46-.18l.39.48h.21c.9.18.72-.23.24-.59a8.31,8.31,0,0,0,1.21-.29c.73.78,2.4-.26,3.4.57.61-.41,4.59-.31,5.08-1.16,0,.11.3.16-.19.17a8.55,8.55,0,0,0,2.95,0l.43.62,2.23-.83c1.35.38,1.91.59.57,1.06,3.24-.72,2.63-.27,5.39-1l-.14.4c1,0,2.56-.55,3.16-.22,2.2.75,10.91.11,16.56.8-1.09-1.16,2.64.53,2.86-.38.33.28,1.12.43.2.67,2.89-.27,4.34.44,6.33-.32.33.28-.61.4-.32.57a2.26,2.26,0,0,1,1.22-.08c.29.17-.42.23-.88.35,2.95,0,3.25-.89,3.46-1.69a4.1,4.1,0,0,0,3.32-.2c.52.26,1.39.54-.44.63,1,0,6.3.38,6.4-.26a4.32,4.32,0,0,0,1.72,0c2.31,0,2.51.09,4.79,0l-.63-.1c.89-.77,1.88-.17,3.72-.27l-.06.08c4.2.56,1.82-.27,6,.37l-.22-.48c.38-1,3.67.61,6.07.21l-.87-.27c1.32-.35,3.68,1.4,5,1.53.29.09-.45.15-.85.21,3.45.61.45-.63,3-.77.47.34-.61.86,1.12.92.86.28,5-1.1,7.39-.45-.52-.26-1-.52.16-.72,1.83-.09,5,1,6.6.17.24.07.32.14.33.2,1.4-.21,4.56-.35,5.4-.8,1.29,1.66,8.71-.8,8.67.73l4.31-.09-.11.16a10.19,10.19,0,0,0,4.7-.63c.63.1.17.24.11.32a18.49,18.49,0,0,0,7.8-.51l.35.49c.92-.29,5.82.78,9.77.2,0,.06-.13.15-.44.22,4.44-.58,10.63,1.38,12.26-.43l2.93-.44c-3.79-.14.56-.78-1-1.08,1.49-.11,3.86.54,2,.63l-.28-.09c-.67.94,4.71.34,4.61,1,7.46,0,14.73.47,21.71.51l-.8-.73,2.43,0c.64.17.86.57-.88.54a4.21,4.21,0,0,0,3-.5c3.4.29-1.33.85-.29.87l1.42-.06-.32-.08a7.54,7.54,0,0,1,3.34-.58c1.33.14.68.45,1.2.48,0,0,.17.07.8,0l3.07.06-1.23-.58c1.36-.28,2.89,0,1.47-.62,2.08,1,11.46.36,12.73.68a24.88,24.88,0,0,1,6.12-.37c-.58-.12-.92-.77,1.09-.69-.74,1.34,3.68.58,5.3,1.55-1.45-.64,5.72-.16,3.44-1.07,1.68.11.1.5,1.37.82,4-.52,8.8.34,13.74.16.07-.17-.75-.44.31-.71l2.6.88c1-.08.9-1,2.68-.4-.25-.15-.63-.37,0-.43,9.66.86,19.75-.7,29.57.91-1.33-.34-.45-.37.57-.39-.66-.08,0-.43-.11-.67l4.11.66c.74-.66,4.4,0,4.83-.67l-1.3.11c1.73-.75-2.42-1.66-2.17-2.62-1.94.85-5.11-1.26-8.29,0-.7-.2.6-.31.22-.53a6.19,6.19,0,0,1-3.58.31l.2-.1c-5.06.1-7.24-.31-12.93-.57l.42.47a8.41,8.41,0,0,1-2.05-.33c-1.41.72,3.43,0,2.15.83-1.62-1-8.62,0-9.72-1.11-1.88,0,.55.55-1.33.54l-.5-.29-.47.38c-1.24-.06-1.86-.44-1.91-.69a9.51,9.51,0,0,0,1.17-.09c-1.6-.35-4.51.12-5.06,0l1.81.18c-5.13.28-11.41-.11-16.37.49l.38.22c-3.79.42-3-.24-7.2-.05l.15,0a11.83,11.83,0,0,1-3.08.31c1.05-.27-2-.51-.6-.8-4.11.44-2,.35-4.75,1.18l-.62-.37a6.92,6.92,0,0,1-3.08.61c1.7-.32-1.33-.57.58-1-4.36-.81-6.47.82-8.47-.37-2,1,3.77.57,2.65.79.94.34-1.66.77-3,.67s-2.37-1.32-5.88-1.3c.35,0,.38-.07.72-.07-1.31-.26-2.57.36-4.17-.07-.91.62-2.09,0-2.35.76l3.21-.18c-1.82.2-3.53,1.13-6.53.68a7.56,7.56,0,0,1,1.74-.49c-.88-.23-1.69.16-2.6-.08.26-.79,3.91-.17,5.86-.78-.94-.33-3.69.58-2.71-.28-1.41,1.09-3.46-.14-5.83.69l.16-.47a8.53,8.53,0,0,1-1.85.28l1.25-.61c-1.92.52-3.7-.46-5.54-.17,3.86,0,.86.57,2.5.91-4.76.64-2.74-1.24-8.07-1,.72-.07,2.71.29,1.58.51a14.19,14.19,0,0,1-3-.53c-3.53.1.55.48-1,.78-1.2-.58-1.73.23-3.28.42V59c-4-.31-1.06,1-4.69.64l1.54-.67-1.89.17.39-.55a13.37,13.37,0,0,1-4.71.15c.47.34-.26.87-2,.89-1.22-.29.68-.46-1.85-.39a2.36,2.36,0,0,1,2.3-.24c.11-.15.56-.3.67-.45a18.21,18.21,0,0,0-4.2-.08,5,5,0,0,1,1,.12l-3.66.67c-.58-.19-.12-.33.33-.47-.74,0-1.25.27-2.34.31.28-.39.21-.79,1.76-1l-3.49.44c-.24-.17-1.79-.47-1.34-.62-1.93-.23-4.74.76-7.31.46a2.46,2.46,0,0,1-.94.2c-2.41-.08-4.55-.57-7.4,0l-1.62-.7c-2.24.16,2.19.88-1.53,1.15-2.64.22-1-.6-1.91-.8a11.91,11.91,0,0,1-6,.51A20.41,20.41,0,0,1,274.11,58.67ZM246.53,59c.53-.1,1.6-.41,2-.13C247.91,59.4,247.44,59.14,246.53,59ZM204.6,60.14a3,3,0,0,1,1.7.1A6.36,6.36,0,0,1,204.6,60.14ZM87.78,63.5l.06,0C89,63.66,88.61,63.59,87.78,63.5Zm-2.47-.21c-.25.07-.23.13-.13.2a3.1,3.1,0,0,1,1.36-.09C86.37,63.27,86.05,63.18,85.31,63.29Zm265.88-.19L350.7,63C351.79,62.84,351.49,63,351.19,63.1Z"/><path class="cls-1" d="M209.35,59.48a.46.46,0,0,1,.23.26C209.79,59.66,209.79,59.57,209.35,59.48Z"/><path class="cls-1" d="M291.27,58.41h.08a.25.25,0,0,0,.09-.09Z"/><path class="cls-1" d="M123.66,59.2a3.31,3.31,0,0,1,1,.25C124.67,59.33,124.44,59.23,123.66,59.2Z"/><path class="cls-1" d="M72.19,64.11,73.77,64a4.72,4.72,0,0,1-1.42-.15C72.38,63.94,72.68,64.1,72.19,64.11Z"/><path class="cls-1" d="M58.42,61.12c-.23.06-.49,0-.72.07l.07.23C58.75,61.4,59.44,61.22,58.42,61.12Z"/><path class="cls-1" d="M70.72,62.51c-.13-.41-1.12-.27-2.23-.2h.19C68.36,62.88,69.54,62.69,70.72,62.51Z"/><path class="cls-1" d="M68.23,62.33a8.85,8.85,0,0,1-1,0C67.07,62.57,67.62,62.39,68.23,62.33Z"/><path class="cls-1" d="M82.17,63.56c-.53-.11-.33.52-.63.35C81,64.43,85.05,63.29,82.17,63.56Z"/><polygon class="cls-1" points="69.82 61.17 70.22 61.67 70.84 61.27 69.82 61.17"/><path class="cls-1" d="M78.59,61.54l-1.77-.14c0,.08-.2.13-.48.17C77.43,61.59,78.63,61.69,78.59,61.54Z"/><path class="cls-1" d="M76.34,61.57a6.5,6.5,0,0,0-1.43.08A13.19,13.19,0,0,0,76.34,61.57Z"/><polygon class="cls-1" points="72.25 61.02 72.77 61.12 74.03 61.16 72.25 61.02"/><path class="cls-1" d="M97.67,61.63l1.94-.14c.2-.17-.33-.28-1-.21C98.1,61.4,97.38,61.47,97.67,61.63Z"/><path class="cls-1" d="M91.81,60.26a2.1,2.1,0,0,1,.86.38l.06-.62Z"/><path class="cls-1" d="M97.46,60.12c.2-.18,2.82-.5.36-.46C97.62,59.83,95.68,60,97.46,60.12Z"/><polygon class="cls-1" points="126.66 60.9 126.16 60.91 126.23 61.93 126.66 60.9"/><path class="cls-1" d="M152.38,58.47c-2.29-.25-.54.62-2.62.32-.54.24,1.7.25,1.15.46C152.29,59,153,59.14,152.38,58.47Z"/><path class="cls-1" d="M150.91,59.25l-.71.15A4.21,4.21,0,0,0,150.91,59.25Z"/><polygon class="cls-1" points="441.32 63.62 442.79 63.83 441.84 63.49 441.32 63.62"/><path class="cls-1" d="M444.15,62.86l.35.65.88-.59A2.78,2.78,0,0,1,444.15,62.86Z"/><path class="cls-1" d="M242.43,57.67l-.11.16c.22.17.57.18,1.26.21Z"/><polygon class="cls-1" points="262.45 58.16 262.1 58.14 262.75 58.73 262.45 58.16"/><path class="cls-1" d="M279.25,57.41c-.68,0-1.49.11-2.18.08C278.57,57.38,279.44,58.14,279.25,57.41Z"/><path class="cls-1" d="M436.64,57.15c.34-.16,0-.46,0-.55C436.18,57,436.71,57.23,436.64,57.15Z"/><polygon class="cls-1" points="431.92 61.13 431.92 60.92 431.41 61.77 431.92 61.13"/><path class="cls-1" d="M427.3,64.42c.85.24,1.58-1.31,2.54-1.72l.23,0,.05-.73A19.91,19.91,0,0,1,427.3,64.42Z"/><path class="cls-1" d="M424,65.15c.33.09-.36.61.61-.4l-.14,0Z"/><path class="cls-1" d="M424.42,64.78c.46-.4-.47.07,0,0Z"/><path class="cls-1" d="M422.39,66.74l.44-.71c-.24,0-.8.43-.68.17C421.61,66.85,421.85,66.85,422.39,66.74Z"/><path class="cls-1" d="M422.17,67.64l.24-.36C422.3,67.28,422.21,67.33,422.17,67.64Z"/><path class="cls-1" d="M422.92,66.54l-.51.74c.16,0,.32.17.25-.32C422.74,67.16,422.74,66.9,422.92,66.54Z"/><path class="cls-1" d="M423.37,66.29c.44-.18.94-.48.5.23C425,65.45,424.46,65.21,423.37,66.29Z"/><path class="cls-1" d="M427.53,65.19l.59-.2.26-.49C428.24,64.73,427.36,65,427.53,65.19Z"/><path class="cls-1" d="M418.52,70c.07.14.48.09.66.18l.29-.55C419.18,69.75,418.71,70.1,418.52,70Z"/><path class="cls-1" d="M419.18,70.15l-.43.82C419.32,70.42,419.33,70.23,419.18,70.15Z"/><path class="cls-1" d="M422.61,68.32c.21-.47.46-.91.7-1.37-.31.52-.62,1-.9,1.57Z"/><polygon class="cls-1" points="416.19 72.48 416.26 71.87 416.06 72.9 416.19 72.48"/><path class="cls-1" d="M414.77,74.26c0-.48-.7.1-.59-.33a4.66,4.66,0,0,0-.61,1.6A3,3,0,0,1,414.77,74.26Z"/><path class="cls-1" d="M413.36,76.37a5.42,5.42,0,0,0,.21-.84A2.8,2.8,0,0,0,413.36,76.37Z"/><path class="cls-1" d="M417.67,72a1,1,0,0,0-.79.24l.55,0Z"/><path class="cls-1" d="M417.45,72.28h0l-.51.55C417,72.76,417.14,72.59,417.45,72.28Z"/><path class="cls-1" d="M417.73,72l-.06.06C417.72,72,417.75,72,417.73,72Z"/><path class="cls-1" d="M420.68,69.62c-.21.53-.76,1.48.21,1C421,70.15,420.38,70.42,420.68,69.62Z"/><path class="cls-1" d="M418.41,72l.71-.6c-.09-.07-.33-.06-.24-.33Z"/><polygon class="cls-1" points="418.21 72.43 418.41 71.99 418.15 72.23 418.21 72.43"/><path class="cls-1" d="M414.67,75.33a4.78,4.78,0,0,1-.65,1.21c.37-.39.77-.79,1.1-1.2C415.06,75.2,415,74.86,414.67,75.33Z"/><path class="cls-1" d="M416,73.84l0,.08C416,73.9,416.08,73.88,416,73.84Z"/><polygon class="cls-1" points="411.2 80.62 411.31 80.59 411.26 80.54 411.2 80.62"/><path class="cls-1" d="M415.24,75.32a1.21,1.21,0,0,0,.43-.78,8.84,8.84,0,0,1-.55.8C415.14,75.4,415.17,75.43,415.24,75.32Z"/><path class="cls-1" d="M412.7,77.62a5.43,5.43,0,0,0,.61-.44C413.08,77.27,412.65,77.49,412.7,77.62Z"/><path class="cls-1" d="M415.8,74l0-.06C415.67,73.94,415.72,74,415.8,74Z"/><path class="cls-1" d="M415.8,74a2.74,2.74,0,0,0-.13.59,6,6,0,0,0,.31-.62A.57.57,0,0,1,415.8,74Z"/><path class="cls-1" d="M412.78,83.31c-.31-.26-.11-1.35.75-1.86.23-.89-1.17-1.13-2.22-.86.14.12.25.2,0,1.11.33-.18,1.53-1.44,1.4-.61-.49,1.12-.65.76-1.13,1.16.67-.17-.15,1.69.62,1.82l.3-1C412.58,83.09,412.55,83.5,412.78,83.31Z"/><path class="cls-1" d="M412.32,79.13l.16-.35a3.87,3.87,0,0,1-1.17.82c-.19.64-.14.83-.05.94L412.34,79Z"/><path class="cls-1" d="M413.49,77.38c.17.5-.22,1.34.49,1.16.63-.91.16-.84.41-1.49-1,1.52.11-.56-.86.35a6.28,6.28,0,0,1,.49-.86c-.24.23-.47.45-.71.64h.05c.09,0,.13,0,.06,0s0,0,0,0a.4.4,0,0,1,.08.16c-.38.37-.14,0-.08-.16l0-.06h0c-.29.54-.59,1.06-.87,1.61A10.68,10.68,0,0,0,413.49,77.38Z"/><path class="cls-1" d="M420.9,71.94a.1.1,0,0,1-.11,0C420.75,72,420.74,72.09,420.9,71.94Z"/><path class="cls-1" d="M420.21,72.28a.86.86,0,0,1,.32-.6c.34-.17.14.15.26.23.09-.26.39-.84-.31-.42l0,.13c-.6.4-1.64.7-1.59.57A3.1,3.1,0,0,0,420.21,72.28Z"/><path class="cls-1" d="M416.83,74.8l-.76,1.29.76-.35-.2-.12C417.22,75,416.9,75,416.83,74.8Z"/><path class="cls-1" d="M410.93,80.65l-.28-.41c0,.36,0,.72.08,1.09C410.79,81.1,410.85,80.87,410.93,80.65Z"/><polygon class="cls-1" points="409.96 82.38 409.66 82.12 409.6 82.69 409.96 82.38"/><path class="cls-1" d="M462.35,136.47l.25-.34A2,2,0,0,0,462.35,136.47Z"/><path class="cls-1" d="M459.92,138l0,.21C460,138.05,460,138,459.92,138Z"/><path class="cls-1" d="M408.87,129.24c0,.77-.08,1.71.26,1.41l.25-.41A2,2,0,0,1,408.87,129.24Z"/><path class="cls-1" d="M436.7,144.71l-.17-.15-.47.35Z"/><path class="cls-1" d="M437.35,143l.75.36A2.76,2.76,0,0,0,437.35,143Z"/><path class="cls-1" d="M472.31,124.41l-.17-.61C471.8,124.43,472.14,124.26,472.31,124.41Z"/><path class="cls-1" d="M403.61,101.58a6.11,6.11,0,0,0-.4,1.38C403.52,102.3,404,101.8,403.61,101.58Z"/><path class="cls-1" d="M464,140.93c.19-.22.24-.35.18-.43C463.94,140.72,463.85,140.87,464,140.93Z"/><path class="cls-1" d="M403.09,104.6c.05-.1.08-.2.12-.29a3.82,3.82,0,0,1,0-1.35A1.79,1.79,0,0,0,403.09,104.6Z"/><path class="cls-1" d="M461.16,73s-.05-.08-.07-.13S461.09,72.93,461.16,73Z"/><path class="cls-1" d="M447.36,61.16a6.67,6.67,0,0,1,.74.17A2.19,2.19,0,0,0,447.36,61.16Z"/><path class="cls-1" d="M406.31,89.49c.12-.41,0-.08,0,0Z"/><path class="cls-1" d="M408.67,88.29a.26.26,0,0,0,.13.23A.36.36,0,0,1,408.67,88.29Z"/><path class="cls-1" d="M405.75,108.73v0C405.83,108.64,405.82,108.67,405.75,108.73Z"/><path class="cls-1" d="M406.71,89a4.38,4.38,0,0,0-.31.45A2.72,2.72,0,0,0,406.71,89Z"/><path class="cls-1" d="M406.49,89l.19-.32C406.63,88.57,406.56,88.59,406.49,89Z"/><path class="cls-1" d="M406.12,90.05a5.2,5.2,0,0,1,.28-.63c0,.07-.09.1-.09.07Z"/><path class="cls-1" d="M478.3,98.48s0-.06,0-.09C478.08,98,478.14,98.2,478.3,98.48Z"/><path class="cls-1" d="M418.89,134.61h-.05l0,.05Z"/><path class="cls-1" d="M420.1,135.26a1.16,1.16,0,0,1-1.23-.61l-.49,1.23C419,135.68,419.54,135.48,420.1,135.26Z"/><path class="cls-1" d="M467.42,131.78l-.91.43c.29-1.28,1-1.71,0-1.45.45.49-.09,1.23-.74,1.86s-1.27,1.27-.87,1.83l-.65.2c.15-.1.11-.19.25-.3-1.32.28-.07,1.32-1.44,2.15-.49.25-.91.33-.71,0a12.12,12.12,0,0,1-.82.95c-.31.17-.37-.08-.06-.25l-1.5,1.09v0a5,5,0,0,1-.69,1.15c-.52,0,.15-.24,0-.33l-.78.77c-.53-.12.08-.82.73-1.1-.75-.37-.89-.21-1.13.09a1.86,1.86,0,0,1-1.68.79,6.23,6.23,0,0,0,.8-.54c-.86-.41-1.45.07-2.6,0,.3.15,2.45.31,1.57,1a1.73,1.73,0,0,0-1.2.61c-.18-.45-.66-.09-1.36.13l-.16-.62c-.68.4-.53.7-.89,1.11a1.26,1.26,0,0,1-1.48-.57c-1.38.2,1.15.56-.45,1a9,9,0,0,0-3.31,1c-.86-.1.09-.4-.23-.54l-.67.6c-.18,0-.14-.15-.12-.23-.59.27,0,.67-.95.92-.1.36-.64.13-1.28-.08a2.42,2.42,0,0,0-2,0c-.31-.19.14-.39.05-.64a13.87,13.87,0,0,0-2.86,1l-1.14-.54c.82.57-.33,1-1.4,1.38a5.66,5.66,0,0,0,.71.6,15.67,15.67,0,0,1-1.67.14c-.18-.14,0-.33.32-.54l-.32.09c-.53-.34-.17-.64.28-.92l.51.48c.45-.35.86-.74.83-1.12a1.34,1.34,0,0,1-.53.12c.11-.09.19-.18.15-.25s-.22.05-.5.19l-.24-.77-.12.26-1.89-.8c-.78.24-1.53.44-2.4.62a7.69,7.69,0,0,1-1.41.16,7,7,0,0,1-1.62-.21c.73-.29.41-.76.65-1.33.19.42.63.51,1.16.55a4.59,4.59,0,0,1,1.71.2c-.58-.23-.37-.48-.19-.54a20,20,0,0,1-2.19,0c.21-.47-.29-.52-.73-.9.05,1.07-1.73.11-2.62,0,.1-.33.42-.54,1.34,0-.73-1.16-1.84.44-2.62-.63.24.1.34.21.51.1-.7,0-1.86-.92-1.41-1l.22.12c-.35-.24-.8-.53-1.29-.81s-1-.56-1.5-.85c-1-.56-1.87-.92-2.25-.66a6,6,0,0,1,1-.75,34.57,34.57,0,0,1-4.23.12c.7-.36,1.15-2.28,2.47-1.66a3.49,3.49,0,0,0-1.27-1.17c.11.27-.28,1.25-.59,1a8.81,8.81,0,0,0-.54-2.23c.17.39-1,.85-1.42.29.2,0,.83-.77,1.07-.66-.62-.18-1.25-.37-1.89-.58.42.2.8-.53.83-1,0,.13-.25-.14-.48-.49a5.77,5.77,0,0,0-.63-.94l.16.71c-.85-1.61-2.38-.63-3.24-2.34.32.09,1.51-.22,1.19-1.1-.74,0-3.33-.44-4.48-1.9.05-.14.12-.29.18-.43l-.82-1.12c.57.24,1.43.75,2.37,1.23s1.87,1,2.43,1.35c0-.74.27-.34-.18-1.25.13-.46.65.3.79.56l-.78-2.2c-.59.36-1.26-1.44-1.75-1.16.53.72,1,1.47,1.6,2.14-.28.18-.89,0-1.47-.38a4,4,0,0,1-1.38-2c.1-.49,1.25-.07,1.45-.19a2.53,2.53,0,0,1-.81-1.59l.55.58c0-1-1.32-1.22-1-2.5,0-.4.6-1.33.19-1.31-.61.77-2.89,1.46-3.55,1.14,0-.08.07-.67.16-1.29a5.5,5.5,0,0,1,.43-1.55c.49-.75,1.56.76,2,.11-.19,0-.46-.31-.56-.45.09-.44.59.08.37-.8-.71,0-.2-1.83-.64-.35-.32-.86.05-1-.08-2-.39.37-1.62-.83-1.81-1.77.17,0,.39-.17.49-.27,0-1.88.36-2.88.44-4.61.16-.15.46-1,.71-.58a2,2,0,0,1-.26-1c.69-1,0,1.19.75.48-.37-.1-.42-1.41-.54-2.2-.68.14-.31,1.74-.16,2.51-.42,0-.81-.4-1.13-1a5.49,5.49,0,0,1-.57-2.41c0-1.51.64-.55.57-.82a4.49,4.49,0,0,0-.08-2.61,2.29,2.29,0,0,1,.3-2.2c.79-.74,1,.26,1.47.17-.18,1.19-.79,1.69-1,2.49l.48-.92a2.6,2.6,0,0,1-.21,1.6,9.91,9.91,0,0,0,1-2.7c.2-.63.42-1.3.64-1.93A9.39,9.39,0,0,1,409,91.3c0-.41,0-1.08-.29-.87l-.17.65c-.62.43-.11-1.41-.6-.68a5.3,5.3,0,0,1,.77-3.19l.65,0c-.17,0-.67.62-.65,1,0-.61,1.55-1.44,1.12-2.3l-.8.62c.15-1,.08-2.3.82-3.23-.8.17-.08.26-1.09.67,1.11-.23-1.4,2.66,0,2-1.13.4-.92,1.18-2,1.92.2.05.52-.21,0,.66a1,1,0,0,1,.07.26l0,.06.05,0s0,0,0,0a1.17,1.17,0,0,1,.49-.34c.2.61-.32,2.07-.29,2.63-.29.51-.13-.3-.45-.08l.07.85c-.46-.08-1.17,1.25-1-.16L405.19,93a3.87,3.87,0,0,0-.81,2.24c-.23.56.14,1.57-.09,1,0,.66-.14,1.3-.14,2H404a18,18,0,0,0-.22,3,8.15,8.15,0,0,1-.61,3.14,7.44,7.44,0,0,1,0,2.4l-.39.21c.15.83-.33,2.54.08,2.88-.48.48-.45,1.52-.3,2.61s.53,2.22.53,3l.51,0a14,14,0,0,0,1,3.11l.42-.19a5.1,5.1,0,0,1,.52,1.92,9,9,0,0,0,.53,2.43c-.2-.05-.31-.48-.32-.8a4.46,4.46,0,0,0,1,3,5.79,5.79,0,0,1,1.38,2.69,1.57,1.57,0,0,1,.54,1,.35.35,0,0,0-.07-.09,1.22,1.22,0,0,0,.08.17c0,.21.06.44.11.68a2.1,2.1,0,0,0-.06-.59,7.57,7.57,0,0,0,.86,1.15l-.29.44.08.1c.15.54.43.23.58-.19a3,3,0,0,0,.63.42c-.4.78,1,1,.64,2,.55,0,1.88,1.92,2.72,1.56-.07.09,0,.23-.2,0a2.88,2.88,0,0,0,1.17,1.2l-.27.6a14.85,14.85,0,0,0,1.47.33c.31.77.42,1.16-.49,1,1.9.7,1.31.85,3,1.28l-.31.27c.47.32,1.51.42,1.59.88a3.24,3.24,0,0,0,1.09,1.17c.57.4,1.29.84,2.07,1.31,1.6.85,3.44,1.76,4.88,2.6-.2-1.31,1.25,1,1.66.2.1.32.5.59-.09.68,1.69.16,2.33,1.13,3.63.61.13.31-.43.33-.3.52.14,0,.57-.13.71.06s-.29.18-.58.25c1.73.28,2-.53,2.28-1.29a1.38,1.38,0,0,0,1.88.06c.26.29.73.61-.32.6.29.05,1.17.23,2,.33s1.6,0,1.64-.31c.18.17.82.07,1,0a11.68,11.68,0,0,0,2.71,0l-.36-.09c.47-.8,1-.22,2.08-.38l0,.08c2.42.23,1-.39,3.39-.1l-.21-.45c0-1.06,2.13.17,3.38-.54-.17,0-.36-.1-.54-.15.61-.5,2.37.76,3.17.65.19,0-.21.22-.41.35,2.12,0,.06-.64,1.41-1.29.37.22,0,.95.93.62.29,0,.87-.5,1.56-1a4.39,4.39,0,0,1,2.19-1.18c-.39-.09-.77-.18-.25-.67.9-.5,3-.6,3.34-1.8.16,0,.24,0,.28.06.58-.59,1.89-1.87,2-2.49.83.45,1.64-.55,2.33-1.5s1.24-1.85,1.79-1.33l1.6-1.88.08.15a3.53,3.53,0,0,0,1.14-2.51c.31-.23.26.06.31.13a7.48,7.48,0,0,0,1.45-1.87,6.33,6.33,0,0,0,.53-2.11l.53.07c0-.3.56-.92,1.21-1.77a8.16,8.16,0,0,0,1.43-3.13.36.36,0,0,1,.11.31,14.88,14.88,0,0,1,1.66-3.79c.55-1.22.9-2.32.15-3,0-.57-.06-1.15-.09-1.72-.57,2-.7-.47-1.17.31.06-.81,1-2,.85-1l-.12.14c.42.28.64-.36.83-1s.25-1.42.56-1.35c.55-4.18,1.05-8.37.53-12.39l-.65.55L481,98c.1-.38.48-.58.62.41.32-.59-.63-1.59-.79-1.58,0-2,1,.58.88,0l-.19-.79,0,.2c-.42-.6-.77-.57-1-1.74,0-.77.34-.49.29-.79.05,0,.05-.12-.09-.45a16.66,16.66,0,0,0-.48-1.71l-.32.84c-.52-.64-.51-1.55-.86-.59a3.12,3.12,0,0,0,0-1.6,11.89,11.89,0,0,0-.77-2.12c-.58-1.47-1.43-2.73-1.45-3.14a10.9,10.9,0,0,1-2.07-2.8c.08.34-.37.85-.9-.14,1.38-.42-.69-2-.47-3.34,0,.54-.5-.12-1.05-.65s-1.07-1-1-.21c-.53-.79.35-.36.12-1.12-1.82-1.4-3.17-3.91-5.41-5.67-.15.11,0,.62-.6.43l-.6-1.6c-.49-.28-1,.48-1.44-.63,0,.21.05.51-.27.33a24,24,0,0,0-7-4.53,60.79,60.79,0,0,1-7.54-3.92c.62.57.14.41-.43.28.34.18-.13.41-.13.66l-2.07-1.26c-.55.48-2.47-.49-2.83.07l.75,0c-1.09.54,1,1.9.59,2.8.61-.3,1.19.21,1.85.66a3.71,3.71,0,0,0,1.07.58,2.06,2.06,0,0,0,1.31,0c.29.31-.4.18-.29.46.54-.25,1.06-.15,1.9.34l-.14.06a17.62,17.62,0,0,1,3,1.42l2.93,2,0-.53a2.77,2.77,0,0,1,.76.85c1-.24-1.53-1-.56-1.31.13.64,1.11,1.23,2,1.82s1.77,1.28,1.69,1.88c.81.56.08-.61.89,0l0,.39.42-.15c.48.46.5.95.37,1.16a2.35,2.35,0,0,0-.54-.3c.43.8,1.93,1.34,2,1.65-.18-.27-.4-.5-.6-.75,2.24,1.53,4.34,4.06,6.4,5.72l0-.29c1.63,1.27.81,1.41,2.27,3l-.09,0a2.75,2.75,0,0,1,1.16,1.18c-.51-.32.13,1.16-.5.7,1.5,1.6.9.69,2.29,1.55l-.17.48a2.26,2.26,0,0,1,1.31,1.17c-.71-.66-.17.87-1,.17A5,5,0,0,0,475.37,90c.44.57.75,1,.35,1.75.65.31.62-.2.48-.74s-.48-1.08-.25-.85c.11-.59,1.08.52,1.2,1.27.11.36-.1.77-.25,1.3a3.67,3.67,0,0,0,0,2.06c0-.18-.12-.17-.16-.35-.09.73.67,1.21.47,2.12.73.33.16,1.08,1,1.06a14.57,14.57,0,0,0-.52-1.62c.47.86,1.46,1.62,1.32,3.28a2.87,2.87,0,0,1-.64-.84c-.16.5.32.86.14,1.37-.79,0-.52-2-1.28-2.89-.25.54.89,1.78,0,1.43.6.27.64.72.66,1.23a2.38,2.38,0,0,0,.42,1.68l-.48,0a2.44,2.44,0,0,1,.38.93l-.67-.59a1.68,1.68,0,0,1,.12,1.43,2.42,2.42,0,0,0-.16,1.42c0-2,.57-.47.9-1.33.34,1.24,0,1.62-.32,2a2.54,2.54,0,0,0-.5.72,3.3,3.3,0,0,0-.24,1.45c0-.37.37-1.37.56-.79a4.14,4.14,0,0,1-.62,1.5c0,1.82.5-.24.75.56-.62.57.12.92.21,1.76l-.48-.06c-.29,1-.06,1.19.17,1.34s.46.28.07,1.19l-.5-.91,0,1-.49-.3a3.56,3.56,0,0,1-.37,2.41c.39-.16.81.34.56,1.25-.45.54-.34-.46-.64.83-.2-.38-.48-.79.1-1.22-.13-.1-.21-.36-.34-.46a4.79,4.79,0,0,0-.66,2.06,1.36,1.36,0,0,1,.24-.45,19.26,19.26,0,0,1,0,2c-.28.22-.33-.05-.39-.32a8.21,8.21,0,0,1-.12,1.25c-.32-.27-.7-.39-.61-1.19-.07.6-.12,1.22-.22,1.83-.21,0-.81.65-.85.38a3.76,3.76,0,0,0-.48,1.69,3.68,3.68,0,0,1-.76,1.84.88.88,0,0,1-.05.53,12.09,12.09,0,0,1-1.15,1.42,4.29,4.29,0,0,0-.91,1.77l-1.07.24c-.57,1,1.4-.36.44,1.32-.66,1.22-.78,0-1.22.27a3.25,3.25,0,0,1-1.67,2.62C466.91,132.26,467.2,132.1,467.42,131.78Zm-11.26,8.34c.22-.2.6-.68.9-.5C457,140.24,456.66,140.09,456.16,140.12Zm-21.47,3.3c.24-.12.54,0,.87.27A1.82,1.82,0,0,1,434.69,143.42ZM405.18,94s0,0,0,0C404.81,94.65,405,94.43,405.18,94Zm.62-1.3c0-.16-.09-.17-.17-.13.08.13,0,.44-.14.78C405.64,93.29,405.78,93.14,405.8,92.7Zm74.73.86,0,.31C480.19,93.3,480.36,93.43,480.53,93.56Z"/><path class="cls-1" d="M437.27,143.17a.48.48,0,0,1,.09.27C437.48,143.37,437.49,143.28,437.27,143.17Z"/><path class="cls-1" d="M472.34,124.53l0,0a.22.22,0,0,0-.05-.08Z"/><path class="cls-1" d="M408.15,113.81a1.27,1.27,0,0,1-.17.55C408.1,114.36,408.18,114.22,408.15,113.81Z"/><path class="cls-1" d="M407.88,85.39c-.09.3-.21.58-.29.88a1.53,1.53,0,0,1,.51-.67C408,85.57,407.76,85.65,407.88,85.39Z"/><path class="cls-1" d="M414.36,80.21c0-.14.14-.23.16-.37l-.2-.1C414,80.21,414,80.62,414.36,80.21Z"/><path class="cls-1" d="M409.7,85.37c.39.12.52-.44.74-1a.93.93,0,0,1-.05.1C410,84,409.83,84.69,409.7,85.37Z"/><path class="cls-1" d="M410.49,84.21a2.69,2.69,0,0,1,.28-.5C410.61,83.53,410.61,83.89,410.49,84.21Z"/><path class="cls-1" d="M406.13,90.91c.2-.25-.42-.36-.21-.47C405.56,90,405.8,92.55,406.13,90.91Z"/><polygon class="cls-1" points="411.11 85.54 410.57 85.5 410.77 85.99 411.11 85.54"/><path class="cls-1" d="M408.72,89.75l.53-.84c-.08,0-.08-.16-.05-.31C408.94,89.15,408.58,89.71,408.72,89.75Z"/><path class="cls-1" d="M409.2,88.6a1.93,1.93,0,0,0,.24-.76A4.28,4.28,0,0,0,409.2,88.6Z"/><path class="cls-1" d="M410.64,86.79l-.22.21q-.18.3-.33.6C410.25,87.32,410.45,87.06,410.64,86.79Z"/><path class="cls-1" d="M405.78,99.86l0,1.08c.16.13.31-.14.31-.54S406,99.73,405.78,99.86Z"/><path class="cls-1" d="M407.75,97c-.17.25-.28.25-.48.37l.6.16Z"/><path class="cls-1" d="M407.3,100c.15.14.24,1.55.42.26C407.56,100.12,407.6,99.08,407.3,100Z"/><polygon class="cls-1" points="406.73 115.68 406.67 115.42 405.68 115.65 406.73 115.68"/><path class="cls-1" d="M413.81,127.41c-.38-1.13-.68.08-.94-1-.35-.13.21.88-.11.74C413.31,127.67,413.43,128,413.81,127.41Z"/><path class="cls-1" d="M412.76,127.16l-.31-.25A1,1,0,0,0,412.76,127.16Z"/><polygon class="cls-1" points="444.48 59.86 443.69 59.48 444.16 59.93 444.48 59.86"/><path class="cls-1" d="M442.74,60.28l-.08-.68-.6.48C442.25,60.09,442.63,60.1,442.74,60.28Z"/><path class="cls-1" d="M453.77,139.68v.16c.16.13.33.08.66,0C454.21,139.77,454,139.74,453.77,139.68Z"/><polygon class="cls-1" points="462.72 135.38 462.57 135.47 463.19 135.74 462.72 135.38"/><path class="cls-1" d="M468.15,129c-.23.25-.36.66-.6.9C467.93,129.26,468.78,129.38,468.15,129Z"/><path class="cls-1" d="M98.65,24c.47-.21.14-.5.18-.61C98.05,23.9,98.72,24.09,98.65,24Z"/><path class="cls-1" d="M95.18,30.77,95,30.63a5.86,5.86,0,0,0,.34,1.05A6.37,6.37,0,0,1,95.18,30.77Z"/><path class="cls-1" d="M96.31,37a1.89,1.89,0,0,0-.37-1.48,3.91,3.91,0,0,1-.55-1.81l.13-.21a4.72,4.72,0,0,1-.63-.44A24.37,24.37,0,0,0,96.31,37Z"/><path class="cls-1" d="M97.27,40.9c0-.39.77.47-.59-.74,0,.09,0,.12.06.17A6.47,6.47,0,0,0,97.27,40.9Z"/><path class="cls-1" d="M96.74,40.33c-.54-.59.16.56,0,0Z"/><path class="cls-1" d="M99.55,42.43c-.31-.1-.63-.19-.93-.32,0,.27.78.75.44.68C100,43.21,99.88,43,99.55,42.43Z"/><path class="cls-1" d="M100.57,42.43c-.15,0-.31-.08-.46-.14C100.14,42.39,100.24,42.48,100.57,42.43Z"/><path class="cls-1" d="M99.13,41.93l1,.36c-.06-.17.06-.37-.44-.18C99.85,42,99.58,42,99.13,41.93Z"/><path class="cls-1" d="M98.72,41.5c-.33-.44-.79-.94.09-.56-.72-.49-1.12-.73-1.16-.58s.06.22.24.43a3.6,3.6,0,0,0,.34.36Z"/><path class="cls-1" d="M97.11,36.94,97,36.3a5.25,5.25,0,0,1-.42-.4C96.77,36.11,96.93,37.08,97.11,36.94Z"/><path class="cls-1" d="M104.72,44.94c.09-.13-.19-.46-.2-.67-.23,0-.45,0-.68,0C104.14,44.47,104.73,44.71,104.72,44.94Z"/><path class="cls-1" d="M104.52,44.27l1,0C104.69,44,104.51,44.1,104.52,44.27Z"/><path class="cls-1" d="M101.09,41.8a14.91,14.91,0,0,1-1.66-.35,15.6,15.6,0,0,0,1.93.49Z"/><path class="cls-1" d="M108.35,45.58l-.58.28c.34-.14.68-.27,1-.42Z"/><path class="cls-1" d="M110.68,45.69c-.39.28.5.52.09.68a4.36,4.36,0,0,0,1.65-.47A2.93,2.93,0,0,1,110.68,45.69Z"/><path class="cls-1" d="M113.21,45.58a6,6,0,0,0-.79.32A2.53,2.53,0,0,0,113.21,45.58Z"/><path class="cls-1" d="M107.07,44.6a1,1,0,0,0,.67.53l-.31-.47Z"/><path class="cls-1" d="M107.42,44.65h0l.78.12Z"/><path class="cls-1" d="M107,44.59h.09C107,44.55,107,44.54,107,44.59Z"/><path class="cls-1" d="M103.22,43.15c.62,0,1.75,0,.83-.63C103.59,42.68,104.13,43.08,103.22,43.15Z"/><path class="cls-1" d="M106.62,44l-.94-.28c0,.11.13.31-.16.37Z"/><polygon class="cls-1" points="107.11 43.93 106.62 43.99 106.97 44.08 107.11 43.93"/><path class="cls-1" d="M111.61,45.15A3.87,3.87,0,0,1,113,45a11,11,0,0,0-1.61-.17C111.27,44.91,111,45.14,111.61,45.15Z"/><path class="cls-1" d="M109.59,44.92h.1C109.63,44.87,109.59,44.85,109.59,44.92Z"/><polygon class="cls-1" points="117.77 44.95 117.69 44.87 117.67 44.95 117.77 44.95"/><path class="cls-1" d="M111.26,44.7a1.13,1.13,0,0,0-.88.11,7.68,7.68,0,0,1,1,0C111.39,44.72,111.4,44.68,111.26,44.7Z"/><path class="cls-1" d="M114.57,45.39a5.55,5.55,0,0,0-.69-.24C114.08,45.29,114.49,45.5,114.57,45.39Z"/><path class="cls-1" d="M109.82,45l-.07,0C109.88,45.15,109.87,45.1,109.82,45Z"/><path class="cls-1" d="M109.82,45a2.51,2.51,0,0,0,.56-.22,4.39,4.39,0,0,0-.69.1Z"/><path class="cls-1" d="M119.18,42.19c-.06.4-1.08.78-2,.36-.86.3-.29,1.6.48,2.32,0-.17,0-.33.92-.57-.32-.21-2-.49-1.24-.86,1.18-.21,1,.13,1.55.34-.49-.49,1.51-.75,1.23-1.47l-1,.28C119.1,42.48,119.47,42.29,119.18,42.19Z"/><path class="cls-1" d="M116,44.84l-.37,0a4,4,0,0,1,1.29.53c.61-.19.74-.34.78-.47l-1.82-.05Z"/><path class="cls-1" d="M113.94,44.89c.29-.43,1.18-.61.64-1.08-1.09,0-.77.36-1.42.54,1.77-.09-.52.24.77.49a7.21,7.21,0,0,1-1,.11,8.28,8.28,0,0,1,.92.2l0,0h0c-.08,0-.11-.09,0,0h0a.38.38,0,0,1,.08-.17c.51.09.08.12-.08.17a.14.14,0,0,0,0,.06h0l1.76-.24A8,8,0,0,0,113.94,44.89Z"/><path class="cls-1" d="M105.22,41.89a.09.09,0,0,1,0,.11C105.38,42,105.43,42,105.22,41.89Z"/><path class="cls-1" d="M105.87,42.32a.8.8,0,0,1-.68,0c-.33-.21,0-.2.06-.34-.27.06-.94.07-.21.48l.13,0c.66.34,1.5,1,1.37,1.06A3.29,3.29,0,0,0,105.87,42.32Z"/><path class="cls-1" d="M109.9,43.71c.5,0,1-.08,1.5-.14l-.74-.4,0,.22C109.85,43.25,110,43.54,109.9,43.71Z"/><polygon class="cls-1" points="117.94 45.16 117.74 45.62 118.59 44.97 117.94 45.16"/><polygon class="cls-1" points="119.85 45.08 119.79 45.48 120.29 45.23 119.85 45.08"/><path class="cls-1" d="M99.19,14.13l-.31.31A1.76,1.76,0,0,0,99.19,14.13Z"/><path class="cls-1" d="M101.87,12.7l0-.21C101.77,12.65,101.76,12.75,101.87,12.7Z"/><path class="cls-1" d="M152.8,16.69c.13-.8.31-1.78-.06-1.53l-.31.37A2.26,2.26,0,0,1,152.8,16.69Z"/><path class="cls-1" d="M124.66,3l.19.11.4-.43Z"/><path class="cls-1" d="M124.34,4.82l-.8-.21A3.44,3.44,0,0,0,124.34,4.82Z"/><path class="cls-1" d="M85.07,23.19l-.19.63C85.54,23.41,85.13,23.4,85.07,23.19Z"/><path class="cls-1" d="M139.69,41.31a6.12,6.12,0,0,0,1.43-.43C140.36,41,139.71,40.9,139.69,41.31Z"/><path class="cls-1" d="M98,9.51c-.2.2-.25.33-.2.41C98,9.72,98.12,9.58,98,9.51Z"/><path class="cls-1" d="M142.61,40a3.2,3.2,0,0,0-.33.07,5.44,5.44,0,0,1-1.16.77A2,2,0,0,0,142.61,40Z"/><path class="cls-1" d="M32.8,55l-.14,0C32.68,55.09,32.73,55.06,32.8,55Z"/><path class="cls-1" d="M15.33,60.64c.14-.11.38-.26.61-.41A2,2,0,0,0,15.33,60.64Z"/><path class="cls-1" d="M127.69,44.8c-.42.07-.06.05,0,0Z"/><path class="cls-1" d="M125.52,43.28a.29.29,0,0,0,.15-.22A.34.34,0,0,1,125.52,43.28Z"/><path class="cls-1" d="M144.41,35.39l0,0C144.29,35.38,144.31,35.38,144.41,35.39Z"/><path class="cls-1" d="M127,44.67a4,4,0,0,0,.54.07A2.58,2.58,0,0,0,127,44.67Z"/><path class="cls-1" d="M127.14,44.86h-.36C126.73,44.94,126.78,45,127.14,44.86Z"/><path class="cls-1" d="M128.26,44.7a3.14,3.14,0,0,1-.68,0c.09,0,.13,0,.11.06Z"/><path class="cls-1" d="M60.1,36.81H60C59.76,37.18,59.89,37.06,60.1,36.81Z"/><path class="cls-1" d="M143.21,10.6h0l0,0Z"/><path class="cls-1" d="M142,10a1.1,1.1,0,0,1,1.23.54c.16-.41.31-.82.45-1.24C143.09,9.54,142.54,9.77,142,10Z"/><path class="cls-1" d="M93,17.94,94,17.76c-.7,1.17-1.56,1.44-.47,1.41-.59-1.23,3.24-2.12,2.68-3.34l.71-.09c-.17.09-.16.17-.32.25,1.42-.08.32-1.33,1.85-2,.55-.19,1-.21.73.12l1-.91c.34-.16.38.09,0,.24l1.66-1v0a6.63,6.63,0,0,1,.76-1.16c.53-.06-.15.24,0,.33l.81-.78c.54.12-.1.82-.78,1.11,1.51.77.64-.72,2.92-1-.28.19-.55.38-.83.59.92.39,1.51-.17,2.72-.21-.34-.12-2.56-.14-1.66-.94a1.82,1.82,0,0,0,1.2-.69c.2.43.7.07,1.39-.25l.21.61c.67-.49.49-.76.82-1.22a1.36,1.36,0,0,1,1.58.42c1.38-.41-1.23-.38.33-1.1a8,8,0,0,0,3.19-1.53c.87,0,0,.42.32.5.18-.24.38-.46.57-.69.18,0,.17.13.16.21.55-.36-.13-.63.79-1.06,0-.37.61-.29,1.28-.17a2.18,2.18,0,0,0,2-.35c.33.12-.07.42.07.64a12.79,12.79,0,0,0,2.62-1.51c.41.09.82.21,1.22.32-.91-.41.13-1.07,1.12-1.61a6.78,6.78,0,0,0-.81-.47c.53-.15,1.06-.34,1.61-.44.2.1,0,.32-.21.59l.29-.15c.59.23.29.6-.11,1-.19-.12-.39-.27-.58-.38-.38.42-.71.88-.6,1.25a1.41,1.41,0,0,1,.49-.22c-.09.12-.15.22-.1.28s.21-.1.46-.28l.37.71.08-.28,2,.43c1.43-.62,2.8-1.68,5.21-1.52-.67.38-.29.81-.44,1.41-.24-.38-.69-.37-1.21-.31a7.14,7.14,0,0,1-1.69.09c.61.11.44.39.28.49.72-.18,1.39-.23,2.12-.34-.14.5.36.43.83.77-.19-1.06,1.66-.33,2.55-.32-.05.34-.35.6-1.3.23.44.52.86.35,1.3.16s.92-.38,1.33.14c-.24-.08-.35-.18-.5-.06.65-.06,1.93.7,1.49.84l-.24-.08c.38.16.84.44,1.34.67s1,.49,1.54.72c1,.42,1.88.8,2.25.52a6,6,0,0,1-1,.79,23,23,0,0,1,4.21-.33c-.35.17-.61.77-1,1.23a1.14,1.14,0,0,1-1.44.51,3.24,3.24,0,0,0,1.26,1.11c-.11-.25.25-1.22.57-1a17.34,17.34,0,0,0,.5,2.19c-.14-.4,1-.81,1.43-.28-.2,0-.86.74-1.1.64a16.59,16.59,0,0,1,1.84.62c-.4-.22-.83.48-.91.92.14-.26.63,1.14.92,1.44l-.08-.69a2.4,2.4,0,0,0,1.4,1.27,2,2,0,0,1,1.35,1.46c-.29-.17-1.51-.1-1.42.76.16.06.45.15.79.3a7.81,7.81,0,0,1,1.07.62,6.29,6.29,0,0,1,1.1,1,4,4,0,0,1,.62,1.29l-.33.35a8.61,8.61,0,0,1,.28,1.43c-.19-.25-.43-.59-.7-1s-.64-.79-1-1.18c-.61-.8-1.41-1.5-1.82-2-.17.66-.37.24-.2,1.13-.26.34-.54-.43-.59-.68,0,.34.05.68,0,1l-.09,1c.72-.09.57,1.62,1.12,1.63l-.23-1.21-.37-1.16c.34-.06.82.25,1.2.84a2.4,2.4,0,0,1,.41,1,2.61,2.61,0,0,1,0,1.24c-.34.36-1.11-.53-1.34-.52.2.23.13,1.55-.1,1.64,0-.25-.1-.49-.17-.73a1.65,1.65,0,0,0-.06,1.18,1.19,1.19,0,0,1-.48,1.22c-.2.32-1.25.58-.92.82.93-.15,3.16.69,3.46,1.39a8.71,8.71,0,0,1-2.35,1.78c-.87.19-.63-1.62-1.38-1.44.14.12.13.53.11.69-.36.23-.37-.46-.8.28.45.53-1.16,1.34.19.68-.38.8-.69.62-1.35,1.38.56.06.42,1.72-.17,2.5-.07-.17-.38-.2-.52-.22a27.34,27.34,0,0,1-4,2.34c-.22-.06-1,.17-.87-.26a1.69,1.69,0,0,1-.71.77c-1.15-.07,1-.6,0-.89.06.19-.17.46-.49.76s-.76.57-1.05.83c.22.24.63.09,1.06-.18a7.42,7.42,0,0,0,1.11-1c.41.72-.36,2.18-2,3.24-1.35.72-.8-.29-1-.08a4.36,4.36,0,0,0-2.26,1.33,2.34,2.34,0,0,1-2.09.77c-1-.35-.26-1-.54-1.38,1.12-.44,1.86-.07,2.65-.31-.35,0-.69,0-1,0a2.66,2.66,0,0,1,1.51-.57,9.74,9.74,0,0,0-2.84.43,15.7,15.7,0,0,1-3.83.39c-.35.23-1,.48-.64.66l.65-.15c.68.35-1.18.75-.31.84a5.51,5.51,0,0,1-3.15.84l-.28-.6c0,.18.86.31,1.2.09-.52.32-2-.69-2.53.14l.91.37c-.89.37-2,1.06-3.14.9.53.59.25-.07,1.09.61-.74-.84,2.94-.1,1.75-1,.89.77,1.47.26,2.63.86,0-.2-.43-.35.56-.34a.89.89,0,0,1,.19-.2H127l-.06,0s0,0,0,0a1,1,0,0,1-.52-.25c.43-.51,2-.66,2.44-1,.58,0-.21.26.14.43l.71-.47c.14.43,1.65.48.33,1l1.24-.19a4.07,4.07,0,0,0,2.36-.35c.61,0,1.33-.88.92-.39.62-.26,1.22-.54,1.82-.84l0,.1c1.91-.57,3.49-2.11,5.83-2.56a10.79,10.79,0,0,1,2-1.48l.41.18c.62-.6,2.32-1.36,2.31-1.94a1.83,1.83,0,0,0,1.14-.42,8.53,8.53,0,0,0,1.15-1.17c.35-.48.7-1,1-1.45a10.11,10.11,0,0,1,.85-1.22l-.4-.32a12,12,0,0,0,.78-1.46,17.62,17.62,0,0,0,.57-1.77l-.44-.1c.1-1.17,1.33-2.65,1.54-4.54.17.15,0,.61-.13.92a3.11,3.11,0,0,0,.56-1.65,5.75,5.75,0,0,0-.17-1.75c-.18-1.16-.65-2.19-.43-3.25a1.9,1.9,0,0,1-.3-1.17.37.37,0,0,0,.05.11c0-.05,0-.12-.05-.2s0-.48,0-.74a2.6,2.6,0,0,0-.07.64,4.57,4.57,0,0,0-.66-1.4l.36-.4-.07-.12c-.05-.6-.38-.32-.6.09a2.93,2.93,0,0,0-.55-.56c.51-.75-.91-1.14-.48-2.09-.53-.11-1.83-2.15-2.71-1.77.08-.08,0-.24.21,0-.32-.5-.61-1.05-1.17-1.25l.26-.61-1.5-.31c-.31-.79-.46-1.16.47-1-1.95-.65-1.36-.83-3.08-1.14l.28-.28c-.47-.33-1.5-.38-1.64-.81a3.47,3.47,0,0,0-1.19-1.08,17.2,17.2,0,0,0-2.2-1.12c-1.68-.75-3.66-1.35-5.22-2,.19.64-.15.41-.6.17s-1-.52-1.12-.08c-.15-.3-.6-.52,0-.68a12.58,12.58,0,0,1-2.05-.22,2.26,2.26,0,0,0-1.65.23c-.19-.28.37-.38.2-.55-.14,0-.54.23-.71.06s.25-.23.52-.35c-1.75.06-1.9.91-2,1.71a1.37,1.37,0,0,0-1.86.29c-.3-.24-.82-.47.21-.65-.29,0-1.19,0-2,0s-1.57.3-1.55.61c-.2-.13-.81.08-.95.17a20.89,20.89,0,0,0-2.64.52l.37,0c-.32.84-1,.39-2,.76V3.4c-2.42.09-.89.51-3.29.62l.27.41c.06.53-.47.53-1.16.53a3.64,3.64,0,0,0-2.09.43l.55.08c-.54.57-2.41-.54-3.16-.36-.18,0,.18-.23.36-.38-2,.21,0,.68-1.25,1.38-.38-.19,0-.93-.95-.57-.57,0-2.09,2.19-3.54,2.22.38.1.76.2.25.68-.87.52-2.89.42-3.31,1.57-.15,0-.22,0-.26-.09-.57.57-2,1.55-2.2,2.17-1.46-1.08-3.71,3.13-4.47,1.82l-2,1.3,0-.17a3.37,3.37,0,0,0-1.86,1.89c-.35.09-.21-.16-.23-.24a5.74,5.74,0,0,0-3.35,2.68L83.27,19c-.27.51-3.11,1-4.65,2.64a.39.39,0,0,1,.09-.32C77,23.13,73,23.25,73.23,25.25L72.1,26.47c1.84-1,.15.83,1,.64-.64.51-2.08.64-1.27,0H72c-.18-1-2.37,1.07-2.66.49-3.45,2.18-7.11,3.83-10.38,5.8l.76.39-1.16.67c-.38,0-.7-.24.13-.72-.65-.09-1.18,1.14-1.12,1.29-1.74.72.17-1.11-.32-.83l-.63.46.19,0c-.38.58-.26.88-1.25,1.45-.69.25-.55-.19-.81-.06,0-.05-.12,0-.38.21L53,37.1l.87.13c-.48.64-1.36.81-.36,1-1.49-.26-5.52,3-6.28,3.08a7.77,7.77,0,0,1-2.65,2.07c.33-.07.83.38-.15.89-.36-1.35-2,.57-3.28.21,1,.13-2.58,1.78-1,1.9-.84.39-.31-.4-1.07-.3-1.58,1.58-4.27,2.23-6.48,3.8.06.17.59.16.23.69H31.07c-.41.35.11,1.12-1,1.11.2.06.49.14.21.38-4.95,2-8.82,6.27-14.24,7.71.8-.09.4.2-.06.5.35-.12.22.37.41.54l-2.27.62c0,.77-2,1.3-1.89,2l.55-.47c-.42,1.13,2,.72,2.38,1.6.46-1.27,3-.39,3.88-2.34.43,0-.12.43.18.52.15-.59.56-.94,1.5-1.3l0,.15c2.3-1.54,3.53-1.82,6.32-3.23L26.52,58a2.77,2.77,0,0,1,1.13-.31c.27-1-1.63,1-1.45-.09,1.27.35,4-2.46,5.11-1.85.88-.53-.54-.31.34-.84L32,55l0-.46c.6-.3,1.09-.17,1.24,0a3.18,3.18,0,0,0-.5.42c.93-.16,2-1.4,2.36-1.46l-.94.36c2.25-1.71,5.37-3.18,7.36-5.12l-.29-.08c1.55-1.44,1.54-.66,3.38-2l0,.09a3.66,3.66,0,0,1,1.27-1.15c-.35.53,1.19-.13.7.51,1.68-1.56.76-.88,1.59-2.37l.48.14a2.41,2.41,0,0,1,1.12-1.4c-.63.76.91.1.24,1,2.46-.56,2.59-2.55,4.14-2.12.4-1.45-2.05.6-1.65.09-.61,0,.37-1.13,1.06-1.43s1.79.44,3.41-.59c-.16.1-.13.17-.3.27.75-.16,1-1,2-1.14.09-.79,1-.57.69-1.32L58,38.35c.74-.7,1.05-2,2.68-2.46a2.92,2.92,0,0,1-.55.92c.53-.06.71-.62,1.25-.68.3.75-1.72,1.27-2.31,2.34.61,0,1.41-1.54,1.41-.53.08-1.34,1.68-.88,2.34-2.27l.18.45a2.89,2.89,0,0,1,.71-.77l-.26.88c.62-1,2-.67,2.67-1.44-1.79,1.12-.7-.24-1.64-.07,1.88-1.91,1.92.27,4.28-1.45-.3.26-1.41.53-1,0a4.54,4.54,0,0,1,1.67-.4c1.59-1.1-.51-.26,0-.94.87.14.69-.7,1.31-1.3l.26.41c2-.9,0-1.17,1.85-1.89l-.36,1,.79-.69.1.58a4.07,4.07,0,0,1,2.12-1.48c-.4-.15-.34-.82.48-1.34.72-.11-.08.58,1.06-.2-.1.42-.2.92-.94.86,0,.17-.1.42-.08.58.79-.09,1.57-.88,2-1.14a2.09,2.09,0,0,1-.52.19l1.35-1.62c.36,0,.23.24.09.49.32-.26.44-.59.93-.94.07.41.32.74-.3,1.34L81,25.44c.2.07,1.08-.12.94.13,1-.35,1.81-2,3.17-2.48,0-.11.11-.24.33-.45,1.17-.61,2.41-.82,3.46-2.1l1.12.14c1-.78-1.48-.13.11-1.42,1.11-1,.77.23,1.31.13a3.74,3.74,0,0,1,2.52-2.13A5.51,5.51,0,0,1,93,17.94Zm12.84-7.45c-.22.21-.59.73-.9.57C104.94,10.42,105.28,10.55,105.79,10.49Zm21.08-6.61c-.21.16-.54.08-.91-.1A1.86,1.86,0,0,1,126.87,3.88Zm5.32,39.8,0,0C132.93,43.69,132.67,43.67,132.19,43.68Zm-1.44.07c-.13.09-.11.15,0,.21.08-.14.39-.2.75-.24C131.34,43.61,131.15,43.57,130.75,43.75Zm-76-7.46.29,0C54.61,36.69,54.69,36.49,54.76,36.29Z"/><path class="cls-1" d="M124.38,4.61a.44.44,0,0,1-.13-.25C124.14,4.45,124.15,4.54,124.38,4.61Z"/><path class="cls-1" d="M85.11,23.07l0,0a.17.17,0,0,0,0,.1Z"/><path class="cls-1" d="M146.47,30.34a1,1,0,0,1,.48-.26C146.86,30,146.71,30,146.47,30.34Z"/><path class="cls-1" d="M123.4,45.36l.89-.17a1.6,1.6,0,0,1-.81-.11C123.5,45.19,123.68,45.34,123.4,45.36Z"/><path class="cls-1" d="M115.72,42.54c-.13.06-.27,0-.39.07l0,.22C115.9,42.82,116.28,42.63,115.72,42.54Z"/><path class="cls-1" d="M122.5,43.8c-.08-.4-.63-.24-1.24-.14h.11C121.21,44.22,121.86,44,122.5,43.8Z"/><path class="cls-1" d="M121.12,43.67a2.18,2.18,0,0,1-.57,0C120.49,43.93,120.78,43.74,121.12,43.67Z"/><path class="cls-1" d="M129,44.29c-.31-.06-.12.54-.31.4C128.44,45.25,130.61,43.79,129,44.29Z"/><polygon class="cls-1" points="121.95 42.49 122.19 42.98 122.52 42.56 121.95 42.49"/><path class="cls-1" d="M126.78,42.53l-1-.05c0,.08-.09.14-.24.19C126.15,42.64,126.82,42.67,126.78,42.53Z"/><path class="cls-1" d="M125.55,42.67a2.15,2.15,0,0,0-.78.15A4.77,4.77,0,0,0,125.55,42.67Z"/><polygon class="cls-1" points="123.27 42.28 123.56 42.37 124.25 42.36 123.27 42.28"/><path class="cls-1" d="M137.06,40.33c.32-.16.64-.34.95-.53,0-.2-.28-.18-.62,0C137.2,40,136.85,40.23,137.06,40.33Z"/><path class="cls-1" d="M133.61,40c.3,0,.35.13.55.24l-.15-.6Z"/><path class="cls-1" d="M136.42,39c0-.19,1.2-1,0-.49C136.4,38.65,135.49,39.15,136.42,39Z"/><polygon class="cls-1" points="148.73 29.95 148.6 30.19 149.5 30.68 148.73 29.95"/><path class="cls-1" d="M147.58,17.57c.16,1.05.73,0,.7,1,.3.18,0-.84.3-.65C148.09,17.4,148.09,17.05,147.58,17.57Z"/><path class="cls-1" d="M148.58,17.94a2.6,2.6,0,0,0,.23.28A1.12,1.12,0,0,0,148.58,17.94Z"/><polygon class="cls-1" points="12.53 61.73 11.73 61.97 12.35 61.99 12.53 61.73"/><path class="cls-1" d="M11.61,63.19l-.51-.46-.1.76C11.14,63.37,11.41,63.13,11.61,63.19Z"/><path class="cls-1" d="M108.3,10.77V10.6c-.17-.1-.35,0-.69.08Z"/><polygon class="cls-1" points="98.64 15.18 98.8 15.1 98.21 14.76 98.64 15.18"/><path class="cls-1" d="M91.23,20.47c.33-.17.63-.51,1-.69C91.56,20.3,90.76,19.9,91.23,20.47Z"/></g></g></svg>