<svg xmlns="http://www.w3.org/2000/svg" viewBox="0 0 699.07 147.11"><defs><style>.cls-1{fill:#1d1d1b;}</style></defs><g id="Laag_2" data-name="Laag 2"><g id="Laag_1-2" data-name="Laag 1"><path class="cls-1" d="M.78,64.82c-1-.06-.63.57-.78.68C1.65,65.36.74,64.65.78,64.82Z"/><polygon class="cls-1" points="17.05 63.39 16.76 63.65 19.16 63.02 17.05 63.39"/><path class="cls-1" d="M32.26,63.4c-1.44-1.07-5.51.17-8.22-.21L23.59,63l-1.22.86C25.66,63.68,29.94,63.1,32.26,63.4Z"/><path class="cls-1" d="M40.37,65.72c-.5-.42,1.75-.36-1.89-.13.18,0,.23.07.34.1C39.15,65.69,39.6,65.69,40.37,65.72Z"/><path class="cls-1" d="M38.82,65.69c-1.6,0,1,.35,0,0Z"/><path class="cls-1" d="M46.22,65.45l-2.11.37c.44.25,2.32.31,1.62.48C47.89,66.1,47.45,65.86,46.22,65.45Z"/><path class="cls-1" d="M48.22,64.67l-1.1.16C47.32,64.93,47.61,65,48.22,64.67Z"/><path class="cls-1" d="M44.81,65.16l2.31-.33c-.3-.17-.33-.52-1.06.12C46.25,64.63,45.79,64.94,44.81,65.16Z"/><path class="cls-1" d="M43.49,65c-1.18-.23-2.71-.38-.59-.75C38.86,64.4,39.46,65.15,43.49,65Z"/><path class="cls-1" d="M33,62.3,31.45,62l-1.37.36C30.77,62.16,33.13,62.63,33,62.3Z"/><path class="cls-1" d="M59.36,66c.13-.23-.71-.61-.87-.9l-1.55.26C57.74,65.53,59.26,65.67,59.36,66Z"/><path class="cls-1" d="M58.49,65.11l2.34-.39C58.74,64.67,58.36,64.86,58.49,65.11Z"/><polygon class="cls-1" points="48.59 63.48 44.76 64.31 49.33 63.47 48.59 63.48"/><polygon class="cls-1" points="68.27 66.03 66.95 66.56 69.3 65.77 68.27 66.03"/><path class="cls-1" d="M74.18,65.94c-1,.44,1.34.74.3,1a18.78,18.78,0,0,0,4.21-.79A12.94,12.94,0,0,1,74.18,65.94Z"/><path class="cls-1" d="M80.76,65.67a19.68,19.68,0,0,0-2.07.49A10.91,10.91,0,0,0,80.76,65.67Z"/><path class="cls-1" d="M64.8,64.83a3,3,0,0,0,1.83.65l-.91-.64Z"/><path class="cls-1" d="M65.68,64.82l0,0c1,0,1.68,0,2,0Z"/><path class="cls-1" d="M64.57,64.83h.23C64.71,64.77,64.66,64.75,64.57,64.83Z"/><path class="cls-1" d="M54.71,64.06c1.37-.35,4.22-.74,1.46-1.28C55.19,63.21,56.77,63.53,54.71,64.06Z"/><path class="cls-1" d="M63.43,64,61,63.88c0,.17.5.42-.18.59Z"/><polygon class="cls-1" points="64.64 63.82 63.43 64.03 64.35 64.08 64.64 63.82"/><path class="cls-1" d="M76.52,65.07a16.85,16.85,0,0,1,3.56-.35c-1.41-.12-2.88-.19-4.27-.19C75.61,64.73,75,65.09,76.52,65.07Z"/><path class="cls-1" d="M71.25,64.89l.24,0C71.35,64.8,71.23,64.78,71.25,64.89Z"/><path class="cls-1" d="M93.1,64.73l-.21-.12,0,.11Z"/><path class="cls-1" d="M75.57,64.41a4.93,4.93,0,0,0-2.31.23c.8-.06,1.64-.1,2.55-.11C75.9,64.44,75.91,64.38,75.57,64.41Z"/><path class="cls-1" d="M84.39,65.37c-.55-.13-1.18-.25-1.84-.35C83.09,65.22,84.2,65.54,84.39,65.37Z"/><path class="cls-1" d="M71.85,65l-.16,0C72,65.2,72,65.13,71.85,65Z"/><path class="cls-1" d="M71.85,65a8.89,8.89,0,0,0,1.41-.39,16.44,16.44,0,0,0-1.77.22A1.5,1.5,0,0,1,71.85,65Z"/><path class="cls-1" d="M97,60.62c-.19.59-3,1.14-5.4.5-2.38.45-.83,2.4,1.25,3.49.07-.26.07-.5,2.52-.85C94.55,63.44,90,63,92,62.47c3.25-.31,2.66.21,4.24.52-1.34-.74,4.12-1.08,3.42-2.16l-2.85.38C96.8,61,97.83,60.77,97,60.62Z"/><path class="cls-1" d="M88.23,64.55l-1,.07a15.74,15.74,0,0,1,3.48.81c1.68-.29,2-.51,2.14-.71l-5-.08Z"/><path class="cls-1" d="M82.7,64.63c.78-.65,3.2-.92,1.72-1.62-3,0-2.07.54-3.84.82,4.77-.16-1.37.36,2.08.72-.94.11-1.78.15-2.58.17.86.08,1.69.18,2.47.3l-.11,0h0c-.2-.08-.27-.13,0-.08l.1,0a.61.61,0,0,1,.22-.24c1.38.13.21.17-.22.24,0,0,0,.07-.06.1h0l4.78-.36A39,39,0,0,0,82.7,64.63Z"/><path class="cls-1" d="M58.72,61.39c.15,0,.14.1.15.15C59.18,61.46,59.3,61.4,58.72,61.39Z"/><path class="cls-1" d="M60.68,61.78a3.44,3.44,0,0,1-1.76.28c-1-.2,0-.31-.05-.52-.68.17-2.38.46-.25.77l.34-.08c1.92.22,4.4,1,4.06,1.11A6.38,6.38,0,0,0,60.68,61.78Z"/><path class="cls-1" d="M71.83,63l4-.32-2-.56.1.34C71.62,62.37,72.11,62.78,71.83,63Z"/><polygon class="cls-1" points="93.55 65.05 93.03 65.73 95.32 64.77 93.55 65.05"/><polygon class="cls-1" points="98.72 64.97 98.53 65.56 99.9 65.2 98.72 64.97"/><path class="cls-1" d="M390.51,57.61l1.17-.17A8.49,8.49,0,0,0,390.51,57.61Z"/><path class="cls-1" d="M382,57.57l-.21.29C382.23,57.7,382.39,57.58,382,57.57Z"/><path class="cls-1" d="M225.71,64.9c1.71.55,3.61,1.41,3.4.75l-.52-.65A10.42,10.42,0,0,1,225.71,64.9Z"/><path class="cls-1" d="M312.68,61l-.5-.2-1.15.62Z"/><path class="cls-1" d="M313.88,58.33l2.25.42A15,15,0,0,0,313.88,58.33Z"/><path class="cls-1" d="M436.73,56.92l1.37-.66C436,56.26,436.9,56.59,436.73,56.92Z"/><path class="cls-1" d="M151.68,64.73a26.16,26.16,0,0,0,3.67.39C153.58,64.75,152.15,64.19,151.68,64.73Z"/><path class="cls-1" d="M387.18,64.51c.71-.12,1-.25,1-.4C387.44,64.22,387,64.35,387.18,64.51Z"/><path class="cls-1" d="M159.59,65.12c-.26-.07-.51-.1-.77-.16a25,25,0,0,1-3.47.16A8.34,8.34,0,0,0,159.59,65.12Z"/><path class="cls-1" d="M604.39,57.46c.12,0,.27,0,.38.08S604.64,57.44,604.39,57.46Z"/><path class="cls-1" d="M653.23,64c-.48,0-1.26,0-2,0A11.06,11.06,0,0,0,653.23,64Z"/><path class="cls-1" d="M119.53,65.25c-1.1,0-.18.07,0,0Z"/><path class="cls-1" d="M114.2,62.68c.23-.07.41-.17.43-.32A.71.71,0,0,1,114.2,62.68Z"/><path class="cls-1" d="M170.52,61.07h.09C170.28,61,170.34,61,170.52,61.07Z"/><path class="cls-1" d="M117.88,65c.41.08.88.15,1.4.2A14.06,14.06,0,0,0,117.88,65Z"/><path class="cls-1" d="M118.1,65.26l-1-.06C117,65.31,117.13,65.38,118.1,65.26Z"/><path class="cls-1" d="M121.06,65.22c-.63,0-1.22,0-1.78-.07.22,0,.31.08.25.1Z"/><path class="cls-1" d="M514.56,59.2l.23.06C515.9,59,515.41,59,514.56,59.2Z"/><path class="cls-1" d="M254.25,58.15a.53.53,0,0,0-.12,0l.16,0Z"/><path class="cls-1" d="M258.19,57.66a5.76,5.76,0,0,1-3.9.54l1.3,1.88Z"/><path class="cls-1" d="M410.77,57.42,408,56.84c3.34-1,5.75-.63,3.15-1.45-.39,2-10.75.2-11.13,2.24l-1.83-.43c.53,0,.61-.1,1.13-.08-3.55-1-2.64,1.47-7.21,1.18-1.59-.15-2.7-.45-1.61-.69l-3.55.5c-1,0-.78-.39.25-.35l-5.42.16,0-.06a32.19,32.19,0,0,1-3.37,1c-1.38-.29.69-.21.34-.47l-3,.5c-1.22-.53,1.26-1,3.33-1-2.8-2-2.48.52-8.52-.67l2.83-.26c-1.83-1.15-4-.74-7.24-1.46.76.38,6.41,1.82,3.16,2.32a9.53,9.53,0,0,0-3.88.19c0-.73-1.73-.55-3.87-.51l.14-1c-2.32.28-2.13.77-3.5,1.2-2.58-.09-3.11-.84-3.72-1.46-4.14-.15,2.85,1.19-2,1.37-3.44-.37-5.86,0-10,.6-2.41-.33.42-.59-.45-.86l-2.13.76c-.52,0-.35-.25-.27-.37-1.8.3-.15,1-3,1.22-.77,1.05-5.81-1.54-9.31-.35-.86-.27.42-.58.16-1a50.26,50.26,0,0,0-8.06,1.63l-3.36-.63c2.47.72-.69,1.57-3.45,2.27.88.35,1.63.65,2.13.8l-4.41.51c-.53-.16-.09-.49.63-.89l-.8.23c-1.58-.35-.76-.9.37-1.44l1.58.59c1.09-.58,2.11-1.23,1.88-1.79a5.93,5.93,0,0,1-1.44.26c.28-.16.47-.3.33-.39s-.6.11-1.33.35l-1-1.07-.24.43-5.77-.67C300.49,59,296.9,60.6,290.35,61c1.63-.78.35-1.28.44-2.21,1.79,1,5.07-.42,8.47-.22-1.78-.1-1.39-.54-.94-.7l-6.05.9c.14-.76-1.28-.57-2.86-.89,1.19,1.5-4.51,1-7,1.46-.15-.5.44-1,3.45-.89-3.32-1.13-4.29,1.76-7.54.8.73,0,1.13.06,1.42-.19-1.72.45-5.9.09-4.92-.35h.73c-4.87-.18-14.82,0-15.55,1.27a5.26,5.26,0,0,1,.93-1.8l-8.69,4.29c.77-1.09-2.17-3.7,1.87-4.32a15.29,15.29,0,0,0-5,0c.79.15,2,1.58.89,1.68-3-1.22-2.06-.65-5.72-1.69,1.19.24-.13,2-2,1.9.29-.26-.16-1.7.53-1.88l-4.67,1.69c1.17-.3.21-1.43-.83-1.91.48.33-4,0-5.28.14l2,.39c-5.27-.25-5.2,2.37-10.43,2.28.63-.35,1.56-2.14-1.09-2.35-1.22.86-5.39,4.15-10,4.81l-.88-.49-3.55.56a80.22,80.22,0,0,1,11.79-5.09c-2-.39-.55-.58-3.5-.54-1-.46,1.61-.7,2.48-.73l-6.87-.3c.3,1-5.26,1-5,1.85l7.47-1c.3,1-4.32,2.86-9.19,2.68-1.23-.4.93-1.79.83-2.13a15.14,15.14,0,0,1-5.07.42l2.07-.54c-2.71-.38-4.43,1.33-7.68.37-1.13-.06-3.36-1.29-3.55-.7,1.83,1.15,2.19,4.71,1,5.57a64.7,64.7,0,0,1-7.19-1.67c-1.85-.9,2.78-2.14,1.2-2.92-.06.28-1.09.62-1.51.73-1.18-.24.49-.86-2.08-.73-.43,1-5.22-.09-1.21.86-2.51.29-2.67-.21-5.62-.16.94.66-2.64,2.24-5.15,2.53.14-.26-.42-.59-.69-.75-5.15-.09-7.91-.56-12.71-.56-.44-.25-2.75-.55-1.77-1a8.5,8.5,0,0,1-2.8.55c-2.86-.88,3.3-.14,1.12-1.2-.19.6-3.83.82-5.94,1.19.65.92,4.87.18,7-.19,0,1.26-3.66,2.59-8.67,3.17-4,.32-1.73-.82-2.42-.64-7.49-.22-6.38,2.21-12.59,1.3-2.47-.81-.11-1.6-.66-2.18,3.25-.31,5,.51,7.18.48l-2.71-.39a12.75,12.75,0,0,1,4.38-.23c-2.06-.73-12.64-.14-18.41-.81-1,.27-2.8.55-2,.87l1.82-.11c1.68.65-3.43.9-1.12,1.2a27.36,27.36,0,0,1-8.65.81l-.65-.92c.08.27,2.26.55,3.23.27-1.44.4-5.29-1.25-6.87,0l2.42.63c-2.46.47-5.5,1.44-8.56,1.15,1.39.91.71-.1,2.88,1-1.88-1.32,7.82,0,4.79-1.33,2.23,1.23,3.86.52,6.78,1.57-.09-.3-1-.58,1.53-.43a3.24,3.24,0,0,1,.56-.27l.18,0-.14,0c.11,0,.12-.06-.06,0a3.93,3.93,0,0,1-1.3-.46c1.27-.7,5.35-.68,6.73-1,1.52.15-.64.35.2.67l2.06-.54c.2.68,4,1.12.46,1.52l3.23,0a19.69,19.69,0,0,0,6.12.24c1.53.15,3.85-.74,2.53-.22l5.06-.41,0,.16c5,.09,10.28-1.11,16,.1a32.47,32.47,0,0,1,6.23-.18l.55.58c2.16-.2,6.49.58,7.41,0,2.33,1.56,10.49.34,14.28.62l.15-.76a77.16,77.16,0,0,0,8.37-.48l-.2-.67c2.79-.56,7.19.47,11.62.41a4,4,0,0,1-2.22,0c5.29,1.52,11.15-1.1,16,0a6.84,6.84,0,0,1,2.9,0,1.39,1.39,0,0,0-.3,0h.49c.53.12,1.07.25,1.66.36a9.24,9.24,0,0,0-1.39-.36,35.71,35.71,0,0,0,3.69-.27l.58.73.32,0c1.34.26,1.08-.35.36-.89a12.11,12.11,0,0,0,1.81-.43c1.09,1.16,3.6-.4,5.09.85.92-.61,6.89-.46,7.62-1.73,0,.16.45.24-.29.25a12.8,12.8,0,0,0,4.42-.07l.65.92,3.33-1.23c2,.55,2.87.88.86,1.59,4.86-1.09,3.94-.41,8.07-1.49l-.2.59c1.48,0,3.84-.81,4.73-.32,3.3,1.12,16.35.15,24.83,1.2-1.65-1.75,3.94.78,4.27-.57.5.41,1.68.65.31,1,4.32-.4,6.5.66,9.49-.48.49.41-.93.6-.49.85a3.31,3.31,0,0,1,1.83-.11c.44.24-.64.34-1.32.52,4.42-.07,4.87-1.34,5.19-2.53,2.24.56,3.36.48,5-.3.78.39,2.09.8-.66.94,1.54.06,9.44.57,9.6-.39a6.11,6.11,0,0,0,2.56,0c3.47.06,3.78.15,7.18.06l-.94-.16c1.34-1.16,2.83-.26,5.57-.4l-.08.12c6.3.84,2.72-.4,8.93.55l-.34-.71c.58-1.55,5.51.91,9.11.32l-1.3-.41c2-.53,5.5,2.1,7.48,2.29.43.14-.68.22-1.28.32,5.17.91.67-1,4.52-1.16.71.5-.91,1.29,1.68,1.38,1.29.41,7.53-1.65,11.07-.67-.78-.39-1.55-.79.24-1.08,2.74-.14,7.42,1.48,9.9.25.35.1.48.21.5.3,2.09-.32,6.82-.53,8.08-1.2,1.94,2.49,13.05-1.2,13,1.09l6.46-.13-.17.24c4.12.15,5.58-.4,7-1,1,.16.26.37.18.49,6,.46,6.63.37,11.69-.78l.52.75c1.37-.43,8.72,1.16,14.63.3-.05.08-.18.22-.65.33,6.66-.87,15.93,2.06,18.37-.65l4.39-.66c-5.68-.21.85-1.18-1.49-1.63,2.23-.15,5.77.82,3,1l-.43-.14c-1,1.41,7.06.5,6.91,1.46,11.17-.07,22.07.72,32.54.78l-1.21-1.1,3.65.06c1,.26,1.29.86-1.31.81,1.37.63,4.36-.52,4.44-.75,5.1.44-2,1.27-.43,1.3l2.13-.08-.48-.13c1.72-.45,1.87-.92,5-.87,2,.22,1,.68,1.8.72,0,.08.26.11,1.2,0l4.6.1-1.84-.87c2-.43,4.32,0,2.2-.94,3.12,1.52,17.16.55,19.08,1a38.18,38.18,0,0,1,9.17-.55c-.87-.18-1.39-1.15,1.62-1-1.1,2,5.52.87,8,2.31-2.17-1,8.57-.23,5.15-1.59,2.52.16.15.75,2.06,1.22,6-.78,13.19.51,20.58.25.12-.27-1.12-.67.46-1.06L602,64.53c1.46-.13,1.34-1.52,4-.6-.37-.22-.94-.56,0-.64,14.49,1.28,29.61-1,44.32,1.36-2-.51-.67-.56.86-.58-1-.12,0-.65-.18-1l6.16,1c1.13-1,6.61-.07,7.25-1l-2,.17c2.59-1.12-3.63-2.49-3.25-3.92-2.91,1.27-7.66-1.89-12.43-.07-1.05-.29.9-.46.34-.79-1.21.61-2.67.74-5.37.46l.31-.15c-7.6.15-10.86-.45-19.39-.86l.63.71a13.12,13.12,0,0,1-3.07-.49c-2.11,1.07,5.15.06,3.23,1.24-2.43-1.44-12.93,0-14.57-1.66-2.82,0,.82.82-2,.81l-.74-.44-.72.57c-1.85-.09-2.78-.65-2.85-1a15.43,15.43,0,0,0,1.76-.14c-2.4-.53-6.76.18-7.59,0l2.71.27c-7.69.41-17.09-.17-24.53.73l.57.34c-5.68.62-4.55-.37-10.79-.08l.23-.08a17.41,17.41,0,0,1-4.62.46c1.57-.39-3-.76-.9-1.19-6.16.66-3.05.52-7.11,1.76l-.94-.55a10.17,10.17,0,0,1-4.62.91c2.56-.48-2-.85.88-1.48C541.14,57.35,538,59.79,535,58c-3,1.54,5.65.86,4,1.19,1.41.5-2.48,1.15-4.53,1s-3.55-2-8.8-1.94c.53,0,.56-.11,1.08-.1-2-.39-3.85.53-6.26-.11-1.35.93-3.13,0-3.52,1.14l4.82-.28c-2.73.31-5.29,1.7-9.79,1a10.89,10.89,0,0,1,2.61-.73c-1.32-.35-2.53.23-3.9-.13.39-1.19,5.86-.26,8.78-1.16-1.41-.5-5.53.86-4.06-.43-2.12,1.64-5.18-.21-8.73,1l.23-.71a12.81,12.81,0,0,1-2.76.43l1.87-.92c-2.88.79-5.55-.69-8.31-.26,5.78,0,1.3.86,3.74,1.38-7.13,1-4.1-1.86-12.08-1.52,1.08-.1,4.06.42,2.37.75a20.66,20.66,0,0,1-4.46-.79c-5.29.15.81.73-1.44,1.17-1.8-.87-2.6.35-4.92.63l0-.72c-6-.47-1.59,1.5-7,.94l2.29-1-2.83.26.59-.82a20,20,0,0,1-7,.22c.7.51-.4,1.31-3.07,1.33-1.82-.43,1-.68-2.76-.58a3.5,3.5,0,0,1,3.43-.36c.17-.23.85-.45,1-.68-2-.5-4.93-.11-6.3-.11a7.85,7.85,0,0,1,1.48.17l-5.48,1c-.87-.27-.18-.49.5-.7-1.11.08-1.88.41-3.52.47.43-.59.33-1.19,2.64-1.47l-5.23.65c-.35-.25-2.68-.7-2-.91-2.9-.35-7.11,1.14-10.95.68a4.23,4.23,0,0,1-1.42.31c-3.61-.14-6.81-.86-11.09,0l-2.43-1.06c-3.35.24,3.29,1.33-2.29,1.73-3.95.34-1.48-.9-2.86-1.19-2,.53-5.38,1.61-9,.75A30.34,30.34,0,0,1,410.77,57.42Zm-41.33.47c.8-.15,2.39-.62,3-.2C371.51,58.52,370.8,58.13,369.44,57.89ZM306.6,59.63a4.51,4.51,0,0,1,2.55.15A9.53,9.53,0,0,1,306.6,59.63Zm-175,5,.08,0C133.42,64.91,132.79,64.8,131.55,64.66Zm-3.71-.31c-.37.1-.35.2-.19.3a4.79,4.79,0,0,1,2-.14C129.43,64.32,129,64.19,127.84,64.35Zm398.43-.29-.72-.19C527.18,63.67,526.72,63.85,526.27,64.06Z"/><path class="cls-1" d="M313.72,58.64a.64.64,0,0,1,.34.39C314.38,58.91,314.39,58.77,313.72,58.64Z"/><path class="cls-1" d="M436.48,57h.13a.29.29,0,0,0,.12-.13Z"/><path class="cls-1" d="M185.31,58.22a5,5,0,0,1,1.47.37C186.82,58.41,186.48,58.27,185.31,58.22Z"/><path class="cls-1" d="M108.18,65.58l2.37-.19a7,7,0,0,1-2.14-.24C108.47,65.32,108.92,65.57,108.18,65.58Z"/><path class="cls-1" d="M87.55,61.1c-.35.09-.74,0-1.08.1l.1.34C88,61.52,89.08,61.25,87.55,61.1Z"/><path class="cls-1" d="M106,63.17c-.19-.6-1.68-.4-3.35-.28h.3C102.44,63.74,104.21,63.45,106,63.17Z"/><path class="cls-1" d="M102.25,62.91c-.52,0-1,0-1.54,0C100.51,63.26,101.33,63,102.25,62.91Z"/><path class="cls-1" d="M123.13,64.75c-.79-.16-.49.78-.94.53C121.31,66.06,127.45,64.34,123.13,64.75Z"/><polygon class="cls-1" points="104.63 61.17 105.23 61.92 106.16 61.32 104.63 61.17"/><path class="cls-1" d="M117.77,61.72l-2.66-.21c0,.13-.29.2-.71.26C116,61.8,117.84,61.94,117.77,61.72Z"/><path class="cls-1" d="M114.4,61.77a10,10,0,0,0-2.14.12A19.64,19.64,0,0,0,114.4,61.77Z"/><polygon class="cls-1" points="108.27 60.95 109.05 61.1 110.93 61.16 108.27 60.95"/><path class="cls-1" d="M146.37,61.87l2.9-.22c.3-.26-.49-.41-1.57-.31C147,61.52,145.92,61.62,146.37,61.87Z"/><path class="cls-1" d="M137.59,59.81a3,3,0,0,1,1.28.57l.09-.93Z"/><path class="cls-1" d="M146.06,59.59c.28-.25,4.21-.74.53-.68C146.29,59.17,143.39,59.38,146.06,59.59Z"/><polygon class="cls-1" points="189.8 60.77 189.06 60.78 189.17 62.31 189.8 60.77"/><path class="cls-1" d="M228.35,57.12c-3.44-.37-.81.94-3.92.48-.81.37,2.54.38,1.71.69C228.22,57.91,229.31,58.12,228.35,57.12Z"/><path class="cls-1" d="M226.14,58.29c-.33.06-.68.13-1.06.23A5.8,5.8,0,0,0,226.14,58.29Z"/><polygon class="cls-1" points="661.34 64.84 663.55 65.16 662.12 64.64 661.34 64.84"/><path class="cls-1" d="M665.58,63.71l.52,1,1.33-.88A4.35,4.35,0,0,1,665.58,63.71Z"/><path class="cls-1" d="M363.29,55.93l-.17.23c.34.26.86.27,1.9.31Z"/><polygon class="cls-1" points="393.29 56.66 392.78 56.64 393.74 57.52 393.29 56.66"/><path class="cls-1" d="M418.47,55.53c-1,0-2.23.16-3.26.13C417.45,55.5,418.75,56.63,418.47,55.53Z"/><path class="cls-1" d="M653.64,57.15c.34-.16,0-.46,0-.55C653.18,57,653.71,57.23,653.64,57.15Z"/><polygon class="cls-1" points="648.92 61.13 648.92 60.92 648.41 61.77 648.92 61.13"/><path class="cls-1" d="M644.3,64.42c.85.24,1.58-1.31,2.54-1.72l.23,0,0-.73A19.91,19.91,0,0,1,644.3,64.42Z"/><path class="cls-1" d="M641,65.15c.33.09-.36.61.61-.4l-.14,0Z"/><path class="cls-1" d="M641.42,64.78c.46-.4-.47.07,0,0Z"/><path class="cls-1" d="M639.39,66.74l.44-.71c-.24,0-.8.43-.68.17C638.61,66.85,638.85,66.85,639.39,66.74Z"/><path class="cls-1" d="M639.17,67.64l.24-.36C639.3,67.28,639.21,67.33,639.17,67.64Z"/><path class="cls-1" d="M639.92,66.54l-.51.74c.16,0,.32.17.25-.32C639.74,67.16,639.74,66.9,639.92,66.54Z"/><path class="cls-1" d="M640.37,66.29c.44-.18.94-.48.5.23C642,65.45,641.46,65.21,640.37,66.29Z"/><path class="cls-1" d="M644.53,65.19l.59-.2.26-.49C645.24,64.73,644.36,65,644.53,65.19Z"/><path class="cls-1" d="M635.52,70c.07.14.48.09.66.18l.29-.55C636.18,69.75,635.71,70.1,635.52,70Z"/><path class="cls-1" d="M636.18,70.15l-.43.82C636.32,70.42,636.33,70.23,636.18,70.15Z"/><path class="cls-1" d="M639.61,68.32c.21-.47.46-.91.7-1.37-.31.52-.62,1-.9,1.57Z"/><polygon class="cls-1" points="633.19 72.48 633.26 71.87 633.06 72.9 633.19 72.48"/><path class="cls-1" d="M631.77,74.26c0-.48-.7.1-.59-.33a4.66,4.66,0,0,0-.61,1.6A3,3,0,0,1,631.77,74.26Z"/><path class="cls-1" d="M630.36,76.37a5.42,5.42,0,0,0,.21-.84A2.8,2.8,0,0,0,630.36,76.37Z"/><path class="cls-1" d="M634.67,72a1,1,0,0,0-.79.24l.55,0Z"/><path class="cls-1" d="M634.45,72.28h0c-.26.27-.44.46-.51.55C634,72.76,634.14,72.59,634.45,72.28Z"/><path class="cls-1" d="M634.73,72l-.06.06C634.72,72,634.75,72,634.73,72Z"/><path class="cls-1" d="M637.68,69.62c-.21.53-.76,1.48.21,1C638,70.15,637.38,70.42,637.68,69.62Z"/><path class="cls-1" d="M635.41,72l.71-.6c-.09-.07-.33-.06-.24-.33Z"/><polygon class="cls-1" points="635.21 72.43 635.41 71.99 635.15 72.23 635.21 72.43"/><path class="cls-1" d="M631.67,75.33a4.78,4.78,0,0,1-.65,1.21c.37-.39.77-.79,1.1-1.2C632.06,75.2,632,74.86,631.67,75.33Z"/><path class="cls-1" d="M633,73.84l0,.08C633,73.9,633.08,73.88,633,73.84Z"/><polygon class="cls-1" points="628.2 80.62 628.31 80.59 628.26 80.54 628.2 80.62"/><path class="cls-1" d="M632.24,75.32a1.21,1.21,0,0,0,.43-.78,8.84,8.84,0,0,1-.55.8C632.14,75.4,632.17,75.43,632.24,75.32Z"/><path class="cls-1" d="M629.7,77.62a5.43,5.43,0,0,0,.61-.44C630.08,77.27,629.65,77.49,629.7,77.62Z"/><path class="cls-1" d="M632.8,74l0-.06C632.67,73.94,632.72,74,632.8,74Z"/><path class="cls-1" d="M632.8,74a2.74,2.74,0,0,0-.13.59,6,6,0,0,0,.31-.62A.57.57,0,0,1,632.8,74Z"/><path class="cls-1" d="M629.78,83.31c-.31-.26-.11-1.35.75-1.86.23-.89-1.17-1.13-2.22-.86.14.12.25.2,0,1.11.33-.18,1.53-1.44,1.4-.61-.49,1.12-.65.76-1.13,1.16.67-.17-.15,1.69.62,1.82l.3-1C629.58,83.09,629.55,83.5,629.78,83.31Z"/><path class="cls-1" d="M629.32,79.13l.16-.35a3.87,3.87,0,0,1-1.17.82c-.19.64-.14.83,0,.94L629.34,79Z"/><path class="cls-1" d="M630.49,77.38c.17.5-.22,1.34.49,1.16.63-.91.16-.84.41-1.49-1,1.52.11-.56-.86.35a6.28,6.28,0,0,1,.49-.86c-.24.23-.47.45-.71.64h.05c.09,0,.13,0,.06,0s0,0,0,0a.4.4,0,0,1,.08.16c-.38.37-.14,0-.08-.16l0-.06h0c-.29.54-.59,1.06-.87,1.61A10.68,10.68,0,0,0,630.49,77.38Z"/><path class="cls-1" d="M637.9,71.94a.1.1,0,0,1-.11,0C637.75,72,637.74,72.09,637.9,71.94Z"/><path class="cls-1" d="M637.21,72.28a.86.86,0,0,1,.32-.6c.34-.17.14.15.26.23.09-.26.39-.84-.31-.42l0,.13c-.6.4-1.64.7-1.59.57A3.1,3.1,0,0,0,637.21,72.28Z"/><path class="cls-1" d="M633.83,74.8l-.76,1.29.76-.35-.2-.12C634.22,75,633.9,75,633.83,74.8Z"/><path class="cls-1" d="M627.93,80.65l-.28-.41c0,.36,0,.72.08,1.09C627.79,81.1,627.85,80.87,627.93,80.65Z"/><polygon class="cls-1" points="626.96 82.38 626.66 82.12 626.6 82.69 626.96 82.38"/><path class="cls-1" d="M679.35,136.47l.25-.34A2,2,0,0,0,679.35,136.47Z"/><path class="cls-1" d="M676.92,138l0,.21C677,138.05,677,138,676.92,138Z"/><path class="cls-1" d="M625.87,129.24c0,.77-.08,1.71.26,1.41l.25-.41A2,2,0,0,1,625.87,129.24Z"/><path class="cls-1" d="M653.7,144.71l-.17-.15-.47.35Z"/><path class="cls-1" d="M654.35,143l.75.36A2.76,2.76,0,0,0,654.35,143Z"/><path class="cls-1" d="M689.31,124.41l-.17-.61C688.8,124.43,689.14,124.26,689.31,124.41Z"/><path class="cls-1" d="M620.61,101.58a6.11,6.11,0,0,0-.4,1.38C620.52,102.3,621,101.8,620.61,101.58Z"/><path class="cls-1" d="M681,140.93c.19-.22.24-.35.18-.43C680.94,140.72,680.85,140.87,681,140.93Z"/><path class="cls-1" d="M620.09,104.6c0-.1.08-.2.12-.29a3.82,3.82,0,0,1,0-1.35A1.79,1.79,0,0,0,620.09,104.6Z"/><path class="cls-1" d="M678.16,73s0-.08-.07-.13S678.09,72.93,678.16,73Z"/><path class="cls-1" d="M664.36,61.16a6.67,6.67,0,0,1,.74.17A2.19,2.19,0,0,0,664.36,61.16Z"/><path class="cls-1" d="M623.31,89.49c.12-.41,0-.08,0,0Z"/><path class="cls-1" d="M625.67,88.29a.26.26,0,0,0,.13.23A.36.36,0,0,1,625.67,88.29Z"/><path class="cls-1" d="M622.75,108.73v0C622.83,108.64,622.82,108.67,622.75,108.73Z"/><path class="cls-1" d="M623.71,89a4.38,4.38,0,0,0-.31.45A2.72,2.72,0,0,0,623.71,89Z"/><path class="cls-1" d="M623.49,89l.19-.32C623.63,88.57,623.56,88.59,623.49,89Z"/><path class="cls-1" d="M623.12,90.05a5.2,5.2,0,0,1,.28-.63c0,.07-.09.1-.09.07C623.27,89.61,623.21,89.77,623.12,90.05Z"/><path class="cls-1" d="M695.3,98.48s0-.06,0-.09C695.08,98,695.14,98.2,695.3,98.48Z"/><path class="cls-1" d="M635.89,134.61h0l0,.05Z"/><path class="cls-1" d="M637.1,135.26a1.16,1.16,0,0,1-1.23-.61l-.49,1.23C636,135.68,636.54,135.48,637.1,135.26Z"/><path class="cls-1" d="M684.42,131.78l-.91.43c.29-1.28,1-1.71,0-1.45.45.49-.09,1.23-.74,1.86s-1.27,1.27-.87,1.83l-.65.2c.15-.1.11-.19.25-.3-1.32.28-.07,1.32-1.44,2.15-.49.25-.91.33-.71,0a12.12,12.12,0,0,1-.82.95c-.31.17-.37-.08-.06-.25l-1.5,1.09v0a5,5,0,0,1-.69,1.15c-.52,0,.15-.24,0-.33l-.78.77c-.53-.12.08-.82.73-1.1-.75-.37-.89-.21-1.13.09a1.86,1.86,0,0,1-1.68.79,6.23,6.23,0,0,0,.8-.54c-.86-.41-1.45.07-2.6,0,.3.15,2.45.31,1.57,1a1.73,1.73,0,0,0-1.2.61c-.18-.45-.66-.09-1.36.13l-.16-.62c-.68.4-.53.7-.89,1.11a1.26,1.26,0,0,1-1.48-.57c-1.38.2,1.15.56-.45,1a9,9,0,0,0-3.31,1c-.86-.1.09-.4-.23-.54l-.67.6c-.18,0-.14-.15-.12-.23-.59.27,0,.67-.95.92-.1.36-.64.13-1.28-.08a2.42,2.42,0,0,0-2,0c-.31-.19.14-.39.05-.64a13.87,13.87,0,0,0-2.86,1l-1.14-.54c.82.57-.33,1-1.4,1.38a5.66,5.66,0,0,0,.71.6,15.67,15.67,0,0,1-1.67.14c-.18-.14,0-.33.32-.54l-.32.09c-.53-.34-.17-.64.28-.92l.51.48c.45-.35.86-.74.83-1.12a1.34,1.34,0,0,1-.53.12c.11-.09.19-.18.15-.25s-.22.05-.5.19l-.24-.77-.12.26-1.89-.8c-.78.24-1.53.44-2.4.62a7.69,7.69,0,0,1-1.41.16,7,7,0,0,1-1.62-.21c.73-.29.41-.76.65-1.33.19.42.63.51,1.16.55a4.59,4.59,0,0,1,1.71.2c-.58-.23-.37-.48-.19-.54a20,20,0,0,1-2.19,0c.21-.47-.29-.52-.73-.9,0,1.07-1.73.11-2.62,0,.1-.33.42-.54,1.34,0-.73-1.16-1.84.44-2.62-.63.24.1.34.21.51.1-.7,0-1.86-.92-1.41-1l.22.12c-.35-.24-.8-.53-1.29-.81s-1-.56-1.5-.85c-1-.56-1.87-.92-2.25-.66a6,6,0,0,1,1-.75,34.57,34.57,0,0,1-4.23.12c.7-.36,1.15-2.28,2.47-1.66a3.49,3.49,0,0,0-1.27-1.17c.11.27-.28,1.25-.59,1a8.81,8.81,0,0,0-.54-2.23c.17.39-1,.85-1.42.29.2,0,.83-.77,1.07-.66-.62-.18-1.25-.37-1.89-.58.42.2.8-.53.83-1,0,.13-.25-.14-.48-.49a5.77,5.77,0,0,0-.63-.94l.16.71c-.85-1.61-2.38-.63-3.24-2.34.32.09,1.51-.22,1.19-1.1-.74,0-3.33-.44-4.48-1.9.05-.14.12-.29.18-.43l-.82-1.12c.57.24,1.43.75,2.37,1.23s1.87,1,2.43,1.35c-.05-.74.27-.34-.18-1.25.13-.46.65.3.79.56l-.78-2.2c-.59.36-1.26-1.44-1.75-1.16.53.72,1,1.47,1.6,2.14-.28.18-.89,0-1.47-.38a4,4,0,0,1-1.38-2c.1-.49,1.25-.07,1.45-.19a2.53,2.53,0,0,1-.81-1.59l.55.58c0-1-1.32-1.22-1-2.5,0-.4.6-1.33.19-1.31-.61.77-2.89,1.46-3.55,1.14,0-.08.07-.67.16-1.29a5.5,5.5,0,0,1,.43-1.55c.49-.75,1.56.76,2,.11-.19,0-.46-.31-.56-.45.09-.44.59.08.37-.8-.71,0-.2-1.83-.64-.35-.32-.86.05-1-.08-2-.39.37-1.62-.83-1.81-1.77.17,0,.39-.17.49-.27,0-1.88.36-2.88.44-4.61.16-.15.46-1,.71-.58a2,2,0,0,1-.26-1c.69-1,0,1.19.75.48-.37-.1-.42-1.41-.54-2.2-.68.14-.31,1.74-.16,2.51-.42,0-.81-.4-1.13-1a5.49,5.49,0,0,1-.57-2.41c0-1.51.64-.55.57-.82a4.49,4.49,0,0,0-.08-2.61,2.29,2.29,0,0,1,.3-2.2c.79-.74,1,.26,1.47.17-.18,1.19-.79,1.69-1,2.49l.48-.92a2.6,2.6,0,0,1-.21,1.6,9.91,9.91,0,0,0,1-2.7c.2-.63.42-1.3.64-1.93A9.39,9.39,0,0,1,626,91.3c0-.41,0-1.08-.29-.87l-.17.65c-.62.43-.11-1.41-.6-.68a5.3,5.3,0,0,1,.77-3.19l.65,0c-.17,0-.67.62-.65,1,0-.61,1.55-1.44,1.12-2.3l-.8.62c.15-1,.08-2.3.82-3.23-.8.17-.08.26-1.09.67,1.11-.23-1.4,2.66,0,2-1.13.4-.92,1.18-2,1.92.2.05.52-.21,0,.66a1,1,0,0,1,.07.26l0,.06,0,0s0,0,0,0a1.17,1.17,0,0,1,.49-.34c.2.61-.32,2.07-.29,2.63-.29.51-.13-.3-.44-.08l.06.85c-.46-.08-1.17,1.25-1-.16L622.19,93a3.87,3.87,0,0,0-.81,2.24c-.23.56.14,1.57-.09,1,0,.66-.14,1.3-.14,2H621a18,18,0,0,0-.22,3,8.15,8.15,0,0,1-.61,3.14,7.44,7.44,0,0,1,0,2.4l-.39.21c.15.83-.33,2.54.08,2.88-.48.48-.45,1.52-.3,2.61s.53,2.22.53,3l.51,0a14,14,0,0,0,1,3.11l.42-.19a5.1,5.1,0,0,1,.52,1.92,9,9,0,0,0,.53,2.43c-.2-.05-.31-.48-.32-.8a4.46,4.46,0,0,0,1,3,5.79,5.79,0,0,1,1.38,2.69,1.57,1.57,0,0,1,.54,1,.35.35,0,0,0-.07-.09,1.22,1.22,0,0,0,.08.17c0,.21.06.44.11.68a2.1,2.1,0,0,0-.06-.59,7.57,7.57,0,0,0,.86,1.15l-.29.44.08.1c.15.54.43.23.58-.19a3,3,0,0,0,.63.42c-.4.78,1,1,.64,2,.55,0,1.88,1.92,2.72,1.56-.07.09,0,.23-.2,0a2.88,2.88,0,0,0,1.17,1.2l-.27.6a14.85,14.85,0,0,0,1.47.33c.31.77.42,1.16-.49,1,1.9.7,1.31.85,3,1.28l-.31.27c.47.32,1.51.42,1.59.88a3.24,3.24,0,0,0,1.09,1.17c.57.4,1.29.84,2.07,1.31,1.6.85,3.44,1.76,4.88,2.6-.2-1.31,1.25,1,1.66.2.1.32.5.59-.09.68,1.69.16,2.33,1.13,3.63.61.13.31-.43.33-.3.52.14,0,.57-.13.71.06s-.29.18-.58.25c1.73.28,2-.53,2.28-1.29a1.38,1.38,0,0,0,1.88.06c.26.29.73.61-.32.6.29.05,1.17.23,2,.33s1.6,0,1.64-.31c.18.17.82.07,1,0a11.68,11.68,0,0,0,2.71,0l-.36-.09c.47-.8,1-.22,2.08-.38l0,.08c2.42.23,1-.39,3.39-.1l-.21-.45c0-1.06,2.13.17,3.38-.54-.17,0-.36-.1-.54-.15.61-.5,2.37.76,3.17.65.19,0-.21.22-.41.35,2.12,0,.06-.64,1.41-1.29.37.22,0,.95.93.62.29,0,.87-.5,1.56-1a4.39,4.39,0,0,1,2.19-1.18c-.39-.09-.77-.18-.25-.67.9-.5,3-.6,3.34-1.8.16,0,.24,0,.28.06.58-.59,1.89-1.87,2-2.49.83.45,1.64-.55,2.33-1.5s1.24-1.85,1.79-1.33l1.6-1.88.08.15a3.53,3.53,0,0,0,1.14-2.51c.31-.23.26.06.31.13a7.48,7.48,0,0,0,1.45-1.87,6.33,6.33,0,0,0,.53-2.11l.53.07c0-.3.56-.92,1.21-1.77a8.16,8.16,0,0,0,1.43-3.13.34.34,0,0,1,.11.31,14.88,14.88,0,0,1,1.66-3.79c.55-1.22.9-2.32.15-3,0-.57-.06-1.15-.09-1.72-.57,2-.7-.47-1.17.31.06-.81,1-2,.85-1l-.12.14c.42.28.64-.36.83-1s.25-1.42.56-1.35c.55-4.18,1-8.37.53-12.39l-.65.55L698,98c.1-.38.48-.58.62.41.32-.59-.63-1.59-.79-1.58-.05-2,1,.58.88,0l-.19-.79,0,.2c-.42-.6-.77-.57-1-1.74,0-.77.34-.49.29-.79,0,0,0-.12-.09-.45a16.66,16.66,0,0,0-.48-1.71l-.32.84c-.52-.64-.51-1.55-.86-.59a3.12,3.12,0,0,0,0-1.6,11.89,11.89,0,0,0-.77-2.12c-.58-1.47-1.43-2.73-1.45-3.14a10.9,10.9,0,0,1-2.07-2.8c.08.34-.37.85-.9-.14,1.38-.42-.69-2-.47-3.34,0,.54-.5-.12-1-.65s-1.07-1-1-.21c-.53-.79.35-.36.12-1.12-1.82-1.4-3.17-3.91-5.41-5.67-.15.11,0,.62-.6.43l-.6-1.6c-.49-.28-1,.48-1.44-.63,0,.21.05.51-.27.33a24,24,0,0,0-7-4.53,60.79,60.79,0,0,1-7.54-3.92c.62.57.14.41-.43.28.34.18-.13.41-.13.66l-2.07-1.26c-.55.48-2.47-.49-2.83.07l.75,0c-1.09.54,1,1.9.59,2.8.61-.3,1.19.21,1.85.66a3.71,3.71,0,0,0,1.07.58,2.06,2.06,0,0,0,1.31,0c.29.31-.4.18-.29.46.54-.25,1.06-.15,1.9.34l-.14.06a17.62,17.62,0,0,1,3,1.42l2.93,2,0-.53a2.77,2.77,0,0,1,.76.85c1-.24-1.53-1-.56-1.31.13.64,1.11,1.23,2,1.82s1.77,1.28,1.69,1.88c.81.56.08-.61.89,0l0,.39.42-.15c.48.46.5.95.37,1.16a2.35,2.35,0,0,0-.54-.3c.43.8,1.93,1.34,2.05,1.65-.18-.27-.4-.5-.6-.75,2.24,1.53,4.34,4.06,6.4,5.72l0-.29c1.63,1.27.81,1.41,2.27,3l-.09,0a2.75,2.75,0,0,1,1.16,1.18c-.51-.32.13,1.16-.5.7,1.5,1.6.9.69,2.29,1.55l-.17.48a2.26,2.26,0,0,1,1.31,1.17c-.71-.66-.17.87-1,.17A5,5,0,0,0,692.37,90c.44.57.75,1,.35,1.75.65.31.62-.2.48-.74s-.48-1.08-.25-.85c.11-.59,1.08.52,1.2,1.27.11.36-.1.77-.25,1.3a3.67,3.67,0,0,0,0,2.06c0-.18-.12-.17-.16-.35-.09.73.67,1.21.47,2.12.73.33.16,1.08,1,1.06a14.57,14.57,0,0,0-.52-1.62c.47.86,1.46,1.62,1.32,3.28a2.87,2.87,0,0,1-.64-.84c-.16.5.32.86.14,1.37-.79,0-.52-2-1.28-2.89-.25.54.89,1.78,0,1.43.6.27.64.72.66,1.23a2.38,2.38,0,0,0,.42,1.68l-.48,0a2.44,2.44,0,0,1,.38.93l-.67-.59a1.68,1.68,0,0,1,.12,1.43,2.42,2.42,0,0,0-.16,1.42c0-2,.57-.47.9-1.33.34,1.24,0,1.62-.32,2a2.54,2.54,0,0,0-.5.72,3.3,3.3,0,0,0-.24,1.45c0-.37.37-1.37.56-.79a4.14,4.14,0,0,1-.62,1.5c0,1.82.5-.24.75.56-.62.57.12.92.21,1.76l-.48-.06c-.29,1-.06,1.19.17,1.34s.46.28.07,1.19l-.5-.91,0,1-.49-.3a3.56,3.56,0,0,1-.37,2.41c.39-.16.81.34.56,1.25-.45.54-.34-.46-.64.83-.2-.38-.48-.79.1-1.22-.13-.1-.21-.36-.34-.46a4.79,4.79,0,0,0-.66,2.06,1.36,1.36,0,0,1,.24-.45,19.26,19.26,0,0,1,0,2c-.28.22-.33-.05-.39-.32a8.21,8.21,0,0,1-.12,1.25c-.32-.27-.7-.39-.61-1.19-.07.6-.12,1.22-.22,1.83-.21,0-.81.65-.85.38a3.76,3.76,0,0,0-.48,1.69,3.68,3.68,0,0,1-.76,1.84.88.88,0,0,1-.05.53,12.09,12.09,0,0,1-1.15,1.42,4.29,4.29,0,0,0-.91,1.77l-1.07.24c-.57,1,1.4-.36.44,1.32-.66,1.22-.78,0-1.22.27a3.25,3.25,0,0,1-1.67,2.62C683.91,132.26,684.2,132.1,684.42,131.78Zm-11.26,8.34c.22-.2.6-.68.9-.5C674,140.24,673.66,140.09,673.16,140.12Zm-21.47,3.3c.24-.12.54,0,.87.27A1.82,1.82,0,0,1,651.69,143.42ZM622.18,94s0,0,0,0C621.81,94.65,622,94.43,622.18,94Zm.62-1.3c0-.16-.09-.17-.17-.13.08.13,0,.44-.14.78C622.64,93.29,622.78,93.14,622.8,92.7Zm74.73.86,0,.31C697.19,93.3,697.36,93.43,697.53,93.56Z"/><path class="cls-1" d="M654.27,143.17a.48.48,0,0,1,.09.27C654.48,143.37,654.49,143.28,654.27,143.17Z"/><path class="cls-1" d="M689.34,124.53l0,0a.22.22,0,0,0-.05-.08Z"/><path class="cls-1" d="M625.15,113.81a1.27,1.27,0,0,1-.17.55C625.1,114.36,625.18,114.22,625.15,113.81Z"/><path class="cls-1" d="M624.88,85.39c-.09.3-.21.58-.29.88a1.53,1.53,0,0,1,.51-.67C625,85.57,624.76,85.65,624.88,85.39Z"/><path class="cls-1" d="M631.36,80.21c0-.14.14-.23.16-.37l-.2-.1C631,80.21,631,80.62,631.36,80.21Z"/><path class="cls-1" d="M626.7,85.37c.39.12.52-.44.74-1l-.05.1C627,84,626.83,84.69,626.7,85.37Z"/><path class="cls-1" d="M627.49,84.21a2.69,2.69,0,0,1,.28-.5C627.61,83.53,627.61,83.89,627.49,84.21Z"/><path class="cls-1" d="M623.13,90.91c.2-.25-.42-.36-.21-.47C622.56,90,622.8,92.55,623.13,90.91Z"/><polygon class="cls-1" points="628.11 85.54 627.57 85.5 627.77 85.99 628.11 85.54"/><path class="cls-1" d="M625.72,89.75l.53-.84c-.08,0-.08-.16,0-.31C625.94,89.15,625.58,89.71,625.72,89.75Z"/><path class="cls-1" d="M626.2,88.6a1.93,1.93,0,0,0,.24-.76A4.28,4.28,0,0,0,626.2,88.6Z"/><path class="cls-1" d="M627.64,86.79l-.22.21q-.18.3-.33.6C627.25,87.32,627.45,87.06,627.64,86.79Z"/><path class="cls-1" d="M622.78,99.86l0,1.08c.16.13.31-.14.31-.54S623,99.73,622.78,99.86Z"/><path class="cls-1" d="M624.75,97c-.17.25-.28.25-.48.37l.6.16Z"/><path class="cls-1" d="M624.3,100c.15.14.24,1.55.42.26C624.56,100.12,624.6,99.08,624.3,100Z"/><polygon class="cls-1" points="623.73 115.68 623.67 115.42 622.68 115.65 623.73 115.68"/><path class="cls-1" d="M630.81,127.41c-.38-1.13-.68.08-.94-1-.35-.13.21.88-.11.74C630.31,127.67,630.43,128,630.81,127.41Z"/><path class="cls-1" d="M629.76,127.16l-.31-.25A1,1,0,0,0,629.76,127.16Z"/><polygon class="cls-1" points="661.48 59.86 660.69 59.48 661.16 59.93 661.48 59.86"/><path class="cls-1" d="M659.74,60.28l-.08-.68-.6.48C659.25,60.09,659.63,60.1,659.74,60.28Z"/><path class="cls-1" d="M670.77,139.68v.16c.16.13.33.08.66,0C671.21,139.77,671,139.74,670.77,139.68Z"/><polygon class="cls-1" points="679.72 135.38 679.57 135.47 680.19 135.74 679.72 135.38"/><path class="cls-1" d="M685.15,129c-.23.25-.36.66-.6.9C684.93,129.26,685.78,129.38,685.15,129Z"/><path class="cls-1" d="M98.65,24c.47-.21.14-.5.18-.61C98.05,23.9,98.72,24.09,98.65,24Z"/><path class="cls-1" d="M95.18,30.77,95,30.63a5.86,5.86,0,0,0,.34,1.05A6.37,6.37,0,0,1,95.18,30.77Z"/><path class="cls-1" d="M96.31,37a1.89,1.89,0,0,0-.37-1.48,3.91,3.91,0,0,1-.55-1.81l.13-.21a4.72,4.72,0,0,1-.63-.44A24.37,24.37,0,0,0,96.31,37Z"/><path class="cls-1" d="M97.27,40.9c0-.39.77.47-.59-.74,0,.09,0,.12.06.17A6.47,6.47,0,0,0,97.27,40.9Z"/><path class="cls-1" d="M96.74,40.33c-.54-.59.16.56,0,0Z"/><path class="cls-1" d="M99.55,42.43c-.31-.1-.63-.19-.93-.32,0,.27.78.75.44.68C100,43.21,99.88,43,99.55,42.43Z"/><path class="cls-1" d="M100.57,42.43c-.15,0-.31-.08-.46-.14C100.14,42.39,100.24,42.48,100.57,42.43Z"/><path class="cls-1" d="M99.13,41.93l1,.36c-.06-.17.06-.37-.44-.18C99.85,42,99.58,42,99.13,41.93Z"/><path class="cls-1" d="M98.72,41.5c-.33-.44-.79-.94.09-.56-.72-.49-1.12-.73-1.16-.58s.06.22.24.43a3.6,3.6,0,0,0,.34.36Z"/><path class="cls-1" d="M97.11,36.94,97,36.3a5.25,5.25,0,0,1-.42-.4C96.77,36.11,96.93,37.08,97.11,36.94Z"/><path class="cls-1" d="M104.72,44.94c.09-.13-.19-.46-.2-.67-.23,0-.45,0-.68,0C104.14,44.47,104.73,44.71,104.72,44.94Z"/><path class="cls-1" d="M104.52,44.27l1,0C104.69,44,104.51,44.1,104.52,44.27Z"/><path class="cls-1" d="M101.09,41.8a14.91,14.91,0,0,1-1.66-.35,15.6,15.6,0,0,0,1.93.49Z"/><path class="cls-1" d="M108.35,45.58l-.58.28c.34-.14.68-.27,1-.42Z"/><path class="cls-1" d="M110.68,45.69c-.39.28.5.52.09.68a4.36,4.36,0,0,0,1.65-.47A2.93,2.93,0,0,1,110.68,45.69Z"/><path class="cls-1" d="M113.21,45.58a6,6,0,0,0-.79.32A2.53,2.53,0,0,0,113.21,45.58Z"/><path class="cls-1" d="M107.07,44.6a1,1,0,0,0,.67.53l-.31-.47Z"/><path class="cls-1" d="M107.42,44.65h0l.78.12Z"/><path class="cls-1" d="M107,44.59h.09C107,44.55,107,44.54,107,44.59Z"/><path class="cls-1" d="M103.22,43.15c.62,0,1.75,0,.83-.63C103.59,42.68,104.13,43.08,103.22,43.15Z"/><path class="cls-1" d="M106.62,44l-.94-.28c0,.11.13.31-.16.37Z"/><polygon class="cls-1" points="107.11 43.93 106.62 43.99 106.97 44.08 107.11 43.93"/><path class="cls-1" d="M111.61,45.15A3.87,3.87,0,0,1,113,45a11,11,0,0,0-1.61-.17C111.27,44.91,111,45.14,111.61,45.15Z"/><path class="cls-1" d="M109.59,44.92h.1C109.63,44.87,109.59,44.85,109.59,44.92Z"/><polygon class="cls-1" points="117.77 44.95 117.69 44.87 117.67 44.95 117.77 44.95"/><path class="cls-1" d="M111.26,44.7a1.13,1.13,0,0,0-.88.11,7.68,7.68,0,0,1,1,0C111.39,44.72,111.4,44.68,111.26,44.7Z"/><path class="cls-1" d="M114.57,45.39a5.55,5.55,0,0,0-.69-.24C114.08,45.29,114.49,45.5,114.57,45.39Z"/><path class="cls-1" d="M109.82,45l-.07,0C109.88,45.15,109.87,45.1,109.82,45Z"/><path class="cls-1" d="M109.82,45a2.51,2.51,0,0,0,.56-.22,4.39,4.39,0,0,0-.69.1Z"/><path class="cls-1" d="M119.18,42.19c-.06.4-1.08.78-2,.36-.86.3-.29,1.6.48,2.32,0-.17,0-.33.92-.57-.32-.21-2-.49-1.24-.86,1.18-.21,1,.13,1.55.34-.49-.49,1.51-.75,1.23-1.47l-1,.28C119.1,42.48,119.47,42.29,119.18,42.19Z"/><path class="cls-1" d="M116,44.84l-.37,0a4,4,0,0,1,1.29.53c.61-.19.74-.34.78-.47l-1.82-.05Z"/><path class="cls-1" d="M113.94,44.89c.29-.43,1.18-.61.64-1.08-1.09,0-.77.36-1.42.54,1.77-.09-.52.24.77.49a7.21,7.21,0,0,1-1,.11,8.28,8.28,0,0,1,.92.2l0,0h0c-.08,0-.11-.09,0,0h0a.38.38,0,0,1,.08-.17c.51.09.08.12-.08.17a.14.14,0,0,0,0,.06h0l1.76-.24A8,8,0,0,0,113.94,44.89Z"/><path class="cls-1" d="M105.22,41.89a.09.09,0,0,1,0,.11C105.38,42,105.43,42,105.22,41.89Z"/><path class="cls-1" d="M105.87,42.32a.8.8,0,0,1-.68,0c-.33-.21,0-.2.06-.34-.27.06-.94.07-.21.48l.13,0c.66.34,1.5,1,1.37,1.06A3.29,3.29,0,0,0,105.87,42.32Z"/><path class="cls-1" d="M109.9,43.71c.5,0,1-.08,1.5-.14l-.74-.4,0,.22C109.85,43.25,110,43.54,109.9,43.71Z"/><polygon class="cls-1" points="117.94 45.16 117.74 45.62 118.59 44.97 117.94 45.16"/><polygon class="cls-1" points="119.85 45.08 119.79 45.48 120.29 45.23 119.85 45.08"/><path class="cls-1" d="M99.19,14.13l-.31.31A1.76,1.76,0,0,0,99.19,14.13Z"/><path class="cls-1" d="M101.87,12.7l0-.21C101.77,12.65,101.76,12.75,101.87,12.7Z"/><path class="cls-1" d="M152.8,16.69c.13-.8.31-1.78-.06-1.53l-.31.37A2.26,2.26,0,0,1,152.8,16.69Z"/><path class="cls-1" d="M124.66,3l.19.11.4-.43Z"/><path class="cls-1" d="M124.34,4.82l-.8-.21A3.44,3.44,0,0,0,124.34,4.82Z"/><path class="cls-1" d="M85.07,23.19l-.19.63C85.54,23.41,85.13,23.4,85.07,23.19Z"/><path class="cls-1" d="M139.69,41.31a6.12,6.12,0,0,0,1.43-.43C140.36,41,139.71,40.9,139.69,41.31Z"/><path class="cls-1" d="M98,9.51c-.2.2-.25.33-.2.41C98,9.72,98.12,9.58,98,9.51Z"/><path class="cls-1" d="M142.61,40a3.2,3.2,0,0,0-.33.07,5.44,5.44,0,0,1-1.16.77A2,2,0,0,0,142.61,40Z"/><path class="cls-1" d="M32.8,55l-.14,0C32.68,55.09,32.73,55.06,32.8,55Z"/><path class="cls-1" d="M15.33,60.64c.14-.11.38-.26.61-.41A2,2,0,0,0,15.33,60.64Z"/><path class="cls-1" d="M127.69,44.8c-.42.07-.06.05,0,0Z"/><path class="cls-1" d="M125.52,43.28a.29.29,0,0,0,.15-.22A.34.34,0,0,1,125.52,43.28Z"/><path class="cls-1" d="M144.41,35.39l0,0C144.29,35.38,144.31,35.38,144.41,35.39Z"/><path class="cls-1" d="M127,44.67a4,4,0,0,0,.54.07A2.58,2.58,0,0,0,127,44.67Z"/><path class="cls-1" d="M127.14,44.86h-.36C126.73,44.94,126.78,45,127.14,44.86Z"/><path class="cls-1" d="M128.26,44.7a3.14,3.14,0,0,1-.68,0c.09,0,.13,0,.11.06Z"/><path class="cls-1" d="M60.1,36.81H60C59.76,37.18,59.89,37.06,60.1,36.81Z"/><path class="cls-1" d="M143.21,10.6h0l0,0Z"/><path class="cls-1" d="M142,10a1.1,1.1,0,0,1,1.23.54c.16-.41.31-.82.45-1.24C143.09,9.54,142.54,9.77,142,10Z"/><path class="cls-1" d="M93,17.94,94,17.76c-.7,1.17-1.56,1.44-.47,1.41-.59-1.23,3.24-2.12,2.68-3.34l.71-.09c-.17.09-.16.17-.32.25,1.42-.08.32-1.33,1.85-2,.55-.19,1-.21.73.12l1-.91c.34-.16.38.09,0,.24l1.66-1v0a6.63,6.63,0,0,1,.76-1.16c.53-.06-.15.24,0,.33l.81-.78c.54.12-.1.82-.78,1.11,1.51.77.64-.72,2.92-1-.28.19-.55.38-.83.59.92.39,1.51-.17,2.72-.21-.34-.12-2.56-.14-1.66-.94a1.82,1.82,0,0,0,1.2-.69c.2.43.7.07,1.39-.25l.21.61c.67-.49.49-.76.82-1.22a1.36,1.36,0,0,1,1.58.42c1.38-.41-1.23-.38.33-1.1a8,8,0,0,0,3.19-1.53c.87,0,0,.42.32.5.18-.24.38-.46.57-.69.18,0,.17.13.16.21.55-.36-.13-.63.79-1.06,0-.37.61-.29,1.28-.17a2.18,2.18,0,0,0,2-.35c.33.12-.07.42.07.64a12.79,12.79,0,0,0,2.62-1.51c.41.09.82.21,1.22.32-.91-.41.13-1.07,1.12-1.61a6.78,6.78,0,0,0-.81-.47c.53-.15,1.06-.34,1.61-.44.2.1,0,.32-.21.59l.29-.15c.59.23.29.6-.11,1-.19-.12-.39-.27-.58-.38-.38.42-.71.88-.6,1.25a1.41,1.41,0,0,1,.49-.22c-.09.12-.15.22-.1.28s.21-.1.46-.28l.37.71.08-.28,2,.43c1.43-.62,2.8-1.68,5.21-1.52-.67.38-.29.81-.44,1.41-.24-.38-.69-.37-1.21-.31a7.14,7.14,0,0,1-1.69.09c.61.11.44.39.28.49.72-.18,1.39-.23,2.12-.34-.14.5.36.43.83.77-.19-1.06,1.66-.33,2.55-.32-.05.34-.35.6-1.3.23.44.52.86.35,1.3.16s.92-.38,1.33.14c-.24-.08-.35-.18-.5-.06.65-.06,1.93.7,1.49.84l-.24-.08c.38.16.84.44,1.34.67s1,.49,1.54.72c1,.42,1.88.8,2.25.52a6,6,0,0,1-1,.79,23,23,0,0,1,4.21-.33c-.35.17-.61.77-1,1.23a1.14,1.14,0,0,1-1.44.51,3.24,3.24,0,0,0,1.26,1.11c-.11-.25.25-1.22.57-1a17.34,17.34,0,0,0,.5,2.19c-.14-.4,1-.81,1.43-.28-.2,0-.86.74-1.1.64a16.59,16.59,0,0,1,1.84.62c-.4-.22-.83.48-.91.92.14-.26.63,1.14.92,1.44l-.08-.69a2.4,2.4,0,0,0,1.4,1.27,2,2,0,0,1,1.35,1.46c-.29-.17-1.51-.1-1.42.76.16.06.45.15.79.3a7.81,7.81,0,0,1,1.07.62,6.29,6.29,0,0,1,1.1,1,4,4,0,0,1,.62,1.29l-.33.35a8.61,8.61,0,0,1,.28,1.43c-.19-.25-.43-.59-.7-1s-.64-.79-1-1.18c-.61-.8-1.41-1.5-1.82-2-.17.66-.37.24-.2,1.13-.26.34-.54-.43-.59-.68,0,.34.05.68,0,1l-.09,1c.72-.09.57,1.62,1.12,1.63l-.23-1.21-.37-1.16c.34-.06.82.25,1.2.84a2.4,2.4,0,0,1,.41,1,2.61,2.61,0,0,1,0,1.24c-.34.36-1.11-.53-1.34-.52.2.23.13,1.55-.1,1.64,0-.25-.1-.49-.17-.73a1.65,1.65,0,0,0-.06,1.18,1.19,1.19,0,0,1-.48,1.22c-.2.32-1.25.58-.92.82.93-.15,3.16.69,3.46,1.39a8.71,8.71,0,0,1-2.35,1.78c-.87.19-.63-1.62-1.38-1.44.14.12.13.53.11.69-.36.23-.37-.46-.8.28.45.53-1.16,1.34.19.68-.38.8-.69.62-1.35,1.38.56.06.42,1.72-.17,2.5-.07-.17-.38-.2-.52-.22a27.34,27.34,0,0,1-4,2.34c-.22-.06-1,.17-.87-.26a1.69,1.69,0,0,1-.71.77c-1.15-.07,1-.6,0-.89.06.19-.17.46-.49.76s-.76.57-1.05.83c.22.24.63.09,1.06-.18a7.42,7.42,0,0,0,1.11-1c.41.72-.36,2.18-2,3.24-1.35.72-.8-.29-1-.08a4.36,4.36,0,0,0-2.26,1.33,2.34,2.34,0,0,1-2.09.77c-1-.35-.26-1-.54-1.38,1.12-.44,1.86-.07,2.65-.31-.35,0-.69,0-1,0a2.66,2.66,0,0,1,1.51-.57,9.74,9.74,0,0,0-2.84.43,15.7,15.7,0,0,1-3.83.39c-.35.23-1,.48-.64.66l.65-.15c.68.35-1.18.75-.31.84a5.51,5.51,0,0,1-3.15.84l-.28-.6c0,.18.86.31,1.2.09-.52.32-2-.69-2.53.14l.91.37c-.89.37-2,1.06-3.14.9.53.59.25-.07,1.09.61-.74-.84,2.94-.1,1.75-1,.89.77,1.47.26,2.63.86,0-.2-.43-.35.56-.34a.89.89,0,0,1,.19-.2H127l-.06,0s0,0,0,0a1,1,0,0,1-.52-.25c.43-.51,2-.66,2.44-1,.58,0-.21.26.14.43l.71-.47c.14.43,1.65.48.33,1l1.24-.19a4.07,4.07,0,0,0,2.36-.35c.61,0,1.33-.88.92-.39.62-.26,1.22-.54,1.82-.84l0,.1c1.91-.57,3.49-2.11,5.83-2.56a10.79,10.79,0,0,1,2-1.48l.41.18c.62-.6,2.32-1.36,2.31-1.94a1.83,1.83,0,0,0,1.14-.42,8.53,8.53,0,0,0,1.15-1.17c.35-.48.7-1,1-1.45a10.11,10.11,0,0,1,.85-1.22l-.4-.32a12,12,0,0,0,.78-1.46,17.62,17.62,0,0,0,.57-1.77l-.44-.1c.1-1.17,1.33-2.65,1.54-4.54.17.15,0,.61-.13.92a3.11,3.11,0,0,0,.56-1.65,5.75,5.75,0,0,0-.17-1.75c-.18-1.16-.65-2.19-.43-3.25a1.9,1.9,0,0,1-.3-1.17.37.37,0,0,0,.05.11c0-.05,0-.12-.05-.2s0-.48,0-.74a2.6,2.6,0,0,0-.07.64,4.57,4.57,0,0,0-.66-1.4l.36-.4-.07-.12c-.05-.6-.38-.32-.6.09a2.93,2.93,0,0,0-.55-.56c.51-.75-.91-1.14-.48-2.09-.53-.11-1.83-2.15-2.71-1.77.08-.08,0-.24.21,0-.32-.5-.61-1.05-1.17-1.25l.26-.61-1.5-.31c-.31-.79-.46-1.16.47-1-1.95-.65-1.36-.83-3.08-1.14l.28-.28c-.47-.33-1.5-.38-1.64-.81a3.47,3.47,0,0,0-1.19-1.08,17.2,17.2,0,0,0-2.2-1.12c-1.68-.75-3.66-1.35-5.22-2,.19.64-.15.41-.6.17s-1-.52-1.12-.08c-.15-.3-.6-.52,0-.68a12.58,12.58,0,0,1-2.05-.22,2.26,2.26,0,0,0-1.65.23c-.19-.28.37-.38.2-.55-.14,0-.54.23-.71.06s.25-.23.52-.35c-1.75.06-1.9.91-2,1.71a1.37,1.37,0,0,0-1.86.29c-.3-.24-.82-.47.21-.65-.29,0-1.19,0-2,0s-1.57.3-1.55.61c-.2-.13-.81.08-.95.17a20.89,20.89,0,0,0-2.64.52l.37,0c-.32.84-1,.39-2,.76V3.4c-2.42.09-.89.51-3.29.62l.27.41c.06.53-.47.53-1.16.53a3.64,3.64,0,0,0-2.09.43l.55.08c-.54.57-2.41-.54-3.16-.36-.18,0,.18-.23.36-.38-2,.21,0,.68-1.25,1.38-.38-.19,0-.93-.95-.57-.57,0-2.09,2.19-3.54,2.22.38.1.76.2.25.68-.87.52-2.89.42-3.31,1.57-.15,0-.22,0-.26-.09-.57.57-2,1.55-2.2,2.17-1.46-1.08-3.71,3.13-4.47,1.82l-2,1.3,0-.17a3.37,3.37,0,0,0-1.86,1.89c-.35.09-.21-.16-.23-.24a5.74,5.74,0,0,0-3.35,2.68L83.27,19c-.27.51-3.11,1-4.65,2.64a.39.39,0,0,1,.09-.32C77,23.13,73,23.25,73.23,25.25L72.1,26.47c1.84-1,.15.83,1,.64-.64.51-2.08.64-1.27,0H72c-.18-1-2.37,1.07-2.66.49-3.45,2.18-7.11,3.83-10.38,5.8l.76.39-1.16.67c-.38,0-.7-.24.13-.72-.65-.09-1.18,1.14-1.12,1.29-1.74.72.17-1.11-.32-.83l-.63.46.19,0c-.38.58-.26.88-1.25,1.45-.69.25-.55-.19-.81-.06,0-.05-.12,0-.38.21L53,37.1l.87.13c-.48.64-1.36.81-.36,1-1.49-.26-5.52,3-6.28,3.08a7.77,7.77,0,0,1-2.65,2.07c.33-.07.83.38-.15.89-.36-1.35-2,.57-3.28.21,1,.13-2.58,1.78-1,1.9-.84.39-.31-.4-1.07-.3-1.58,1.58-4.27,2.23-6.48,3.8.06.17.59.16.23.69H31.07c-.41.35.11,1.12-1,1.11.2.06.49.14.21.38-4.95,2-8.82,6.27-14.24,7.71.8-.09.4.2-.06.5.35-.12.22.37.41.54l-2.27.62c0,.77-2,1.3-1.89,2l.55-.47c-.42,1.13,2,.72,2.38,1.6.46-1.27,3-.39,3.88-2.34.43,0-.12.43.18.52.15-.59.56-.94,1.5-1.3l0,.15c2.3-1.54,3.53-1.82,6.32-3.23L26.52,58a2.77,2.77,0,0,1,1.13-.31c.27-1-1.63,1-1.45-.09,1.27.35,4-2.46,5.11-1.85.88-.53-.54-.31.34-.84L32,55l0-.46c.6-.3,1.09-.17,1.24,0a3.18,3.18,0,0,0-.5.42c.93-.16,2-1.4,2.36-1.46l-.94.36c2.25-1.71,5.37-3.18,7.36-5.12l-.29-.08c1.55-1.44,1.54-.66,3.38-2l0,.09a3.66,3.66,0,0,1,1.27-1.15c-.35.53,1.19-.13.7.51,1.68-1.56.76-.88,1.59-2.37l.48.14a2.41,2.41,0,0,1,1.12-1.4c-.63.76.91.1.24,1,2.46-.56,2.59-2.55,4.14-2.12.4-1.45-2.05.6-1.65.09-.61,0,.37-1.13,1.06-1.43s1.79.44,3.41-.59c-.16.1-.13.17-.3.27.75-.16,1-1,2-1.14.09-.79,1-.57.69-1.32L58,38.35c.74-.7,1.05-2,2.68-2.46a2.92,2.92,0,0,1-.55.92c.53-.06.71-.62,1.25-.68.3.75-1.72,1.27-2.31,2.34.61,0,1.41-1.54,1.41-.53.08-1.34,1.68-.88,2.34-2.27l.18.45a2.89,2.89,0,0,1,.71-.77l-.26.88c.62-1,2-.67,2.67-1.44-1.79,1.12-.7-.24-1.64-.07,1.88-1.91,1.92.27,4.28-1.45-.3.26-1.41.53-1,0a4.54,4.54,0,0,1,1.67-.4c1.59-1.1-.51-.26,0-.94.87.14.69-.7,1.31-1.3l.26.41c2-.9,0-1.17,1.85-1.89l-.36,1,.79-.69.1.58a4.07,4.07,0,0,1,2.12-1.48c-.4-.15-.34-.82.48-1.34.72-.11-.08.58,1.06-.2-.1.42-.2.92-.94.86,0,.17-.1.42-.08.58.79-.09,1.57-.88,2-1.14a2.09,2.09,0,0,1-.52.19l1.35-1.62c.36,0,.23.24.09.49.32-.26.44-.59.93-.94.07.41.32.74-.3,1.34L81,25.44c.2.07,1.08-.12.94.13,1-.35,1.81-2,3.17-2.48,0-.11.11-.24.33-.45,1.17-.61,2.41-.82,3.46-2.1l1.12.14c1-.78-1.48-.13.11-1.42,1.11-1,.77.23,1.31.13a3.74,3.74,0,0,1,2.52-2.13A5.51,5.51,0,0,1,93,17.94Zm12.84-7.45c-.22.21-.59.73-.9.57C104.94,10.42,105.28,10.55,105.79,10.49Zm21.08-6.61c-.21.16-.54.08-.91-.1A1.86,1.86,0,0,1,126.87,3.88Zm5.32,39.8,0,0C132.93,43.69,132.67,43.67,132.19,43.68Zm-1.44.07c-.13.09-.11.15,0,.21.08-.14.39-.2.75-.24C131.34,43.61,131.15,43.57,130.75,43.75Zm-76-7.46.29,0C54.61,36.69,54.69,36.49,54.76,36.29Z"/><path class="cls-1" d="M124.38,4.61a.44.44,0,0,1-.13-.25C124.14,4.45,124.15,4.54,124.38,4.61Z"/><path class="cls-1" d="M85.11,23.07l0,0a.17.17,0,0,0,0,.1Z"/><path class="cls-1" d="M146.47,30.34a1,1,0,0,1,.48-.26C146.86,30,146.71,30,146.47,30.34Z"/><path class="cls-1" d="M123.4,45.36l.89-.17a1.6,1.6,0,0,1-.81-.11C123.5,45.19,123.68,45.34,123.4,45.36Z"/><path class="cls-1" d="M115.72,42.54c-.13.06-.27,0-.39.07l0,.22C115.9,42.82,116.28,42.63,115.72,42.54Z"/><path class="cls-1" d="M122.5,43.8c-.08-.4-.63-.24-1.24-.14h.11C121.21,44.22,121.86,44,122.5,43.8Z"/><path class="cls-1" d="M121.12,43.67a2.18,2.18,0,0,1-.57,0C120.49,43.93,120.78,43.74,121.12,43.67Z"/><path class="cls-1" d="M129,44.29c-.31-.06-.12.54-.31.4C128.44,45.25,130.61,43.79,129,44.29Z"/><polygon class="cls-1" points="121.95 42.49 122.19 42.98 122.52 42.56 121.95 42.49"/><path class="cls-1" d="M126.78,42.53l-1-.05c0,.08-.09.14-.24.19C126.15,42.64,126.82,42.67,126.78,42.53Z"/><path class="cls-1" d="M125.55,42.67a2.15,2.15,0,0,0-.78.15A4.77,4.77,0,0,0,125.55,42.67Z"/><polygon class="cls-1" points="123.27 42.28 123.56 42.37 124.25 42.36 123.27 42.28"/><path class="cls-1" d="M137.06,40.33c.32-.16.64-.34.95-.53,0-.2-.28-.18-.62,0C137.2,40,136.85,40.23,137.06,40.33Z"/><path class="cls-1" d="M133.61,40c.3,0,.35.13.55.24l-.15-.6Z"/><path class="cls-1" d="M136.42,39c0-.19,1.2-1,0-.49C136.4,38.65,135.49,39.15,136.42,39Z"/><polygon class="cls-1" points="148.73 29.95 148.6 30.19 149.5 30.68 148.73 29.95"/><path class="cls-1" d="M147.58,17.57c.16,1.05.73,0,.7,1,.3.18,0-.84.3-.65C148.09,17.4,148.09,17.05,147.58,17.57Z"/><path class="cls-1" d="M148.58,17.94a2.6,2.6,0,0,0,.23.28A1.12,1.12,0,0,0,148.58,17.94Z"/><polygon class="cls-1" points="12.53 61.73 11.73 61.97 12.35 61.99 12.53 61.73"/><path class="cls-1" d="M11.61,63.19l-.51-.46-.1.76C11.14,63.37,11.41,63.13,11.61,63.19Z"/><path class="cls-1" d="M108.3,10.77V10.6c-.17-.1-.35,0-.69.08Z"/><polygon class="cls-1" points="98.64 15.18 98.8 15.1 98.21 14.76 98.64 15.18"/><path class="cls-1" d="M91.23,20.47c.33-.17.63-.51,1-.69C91.56,20.3,90.76,19.9,91.23,20.47Z"/></g></g></svg>